<?xml version="1.0" standalone="no"?>
  <!DOCTYPE svg PUBLIC "-//W3C//DTD SVG 1.1//EN" "http://www.w3.org/Graphics/SVG/1.1/DTD/svg11.dtd" >
  <svg>
  <metadata>
  Created by font-carrier
  </metadata>
  <defs>
  <font id="StarJedi_Cyrillic" horiz-adv-x="5507" vert-adv-y="5507" >
    <font-face
      
      font-family="Star Jedi_Cyrillic"
      
      font-weight="400"
      
      font-stretch="normal"
      
      units-per-em="2048"
      
      ascent="2560"
      
      descent="-708"
      
    />
      <missing-glyph />

      

      
      <glyph glyph-name="uni0" unicode="&#x0;" d="M512 0L512 2560L2560 2560L2560 0L512 0M2494 66L2494 2494L578 2494L578 66L2494 66Z"  horiz-adv-x="3072" vert-adv-y="2048"  />

      
      <glyph glyph-name="unid7" unicode="&#xd7;" d="M512 0L512 2560L2560 2560L2560 0L512 0M2494 66L2494 2494L578 2494L578 66L2494 66Z"  horiz-adv-x="3072" vert-adv-y="2048"  />

      
      <glyph glyph-name="unif7" unicode="&#xf7;" d="M512 0L512 2560L2560 2560L2560 0L512 0M2494 66L2494 2494L578 2494L578 66L2494 66Z"  horiz-adv-x="3072" vert-adv-y="2048"  />

      
      <glyph glyph-name="uni201A" unicode="&#x201A;" d="M512 0L512 2560L2560 2560L2560 0L512 0M2494 66L2494 2494L578 2494L578 66L2494 66Z"  horiz-adv-x="3072" vert-adv-y="2048"  />

      
      <glyph glyph-name="uni201B" unicode="&#x201B;" d="M512 0L512 2560L2560 2560L2560 0L512 0M2494 66L2494 2494L578 2494L578 66L2494 66Z"  horiz-adv-x="3072" vert-adv-y="2048"  />

      
      <glyph glyph-name="uni201F" unicode="&#x201F;" d="M512 0L512 2560L2560 2560L2560 0L512 0M2494 66L2494 2494L578 2494L578 66L2494 66Z"  horiz-adv-x="3072" vert-adv-y="2048"  />

      
      <glyph glyph-name="uni21" unicode="&#x21;" d="M162 1444L711 1444L631 535L242 535L162 1444M213 385L659 385L659 0L213 0L213 385Z"  horiz-adv-x="872" vert-adv-y="2048"  />

      
      <glyph glyph-name="uni22" unicode="&#x22;" d="M635 813L635 1444L942 1444L942 813L635 813M197 813L197 1444L504 1444L504 813L197 813Z"  horiz-adv-x="1139" vert-adv-y="2048"  />

      
      <glyph glyph-name="uni23" unicode="&#x23;" d="M1882 1086L1875 851L1834 685L1792 588L1778 581Q1681 367 1439 208Q1308 125 1093 90L851 90L733 111L720 125L630 145L484 221L381 291L291 381Q97 616 62 886Q35 1121 125 1377L159 1439L173 1446Q166 1474 298 1640L381 1716Q623 1896 844 1917L1100 1917Q1294 1882 1439 1792Q1827 1550 1882 1086M235 637Q263 630 277 650L228 789L298 816L304 816L284 962Q277 1017 304 1176L228 1197L270 1328L256 1356L221 1349L159 1093Q152 775 235 637M318 1425L408 1536L436 1536L470 1494L491 1488Q630 1626 782 1661L761 1750L913 1771L920 1771L913 1827L768 1806L650 1764L498 1681Q408 1605 367 1550L346 1550L284 1460L291 1439L318 1425M1439 1494L1460 1501L1508 1550L1536 1515Q1557 1522 1605 1439Q1619 1432 1647 1460L1605 1529L1584 1529L1564 1571L1481 1654Q1315 1778 1031 1827L1010 1820L1017 1771L1128 1764L1162 1750L1149 1661Q1391 1584 1439 1494M879 180L927 180L927 228L775 249L789 339Q630 394 574 436Q519 470 491 512L443 457L415 457L325 567L291 547Q284 526 332 477L484 332L657 235L879 180M1024 180L1149 194Q1252 221 1384 284Q1439 311 1557 422L1654 540L1654 560L1626 574L1598 560L1584 519L1529 464L1508 464L1467 512L1446 512L1342 415L1211 353L1155 339L1169 263Q1114 228 1031 228L1024 180M1695 643Q1723 637 1757 768L1785 927Q1792 1066 1771 1183L1702 1370L1661 1349L1709 1211L1647 1190Q1626 1183 1633 1149Q1674 1093 1633 830L1709 810L1667 657Q1695 657 1695 643M547 650L567 657L616 713Q664 733 747 816L768 816L803 782L879 740L927 726L886 498L886 457L1059 457L1017 726L1121 768L1183 823L1301 726L1315 726L1384 657Q1411 657 1481 803L1481 823L1245 899Q1225 899 1232 934Q1252 969 1245 1031L1232 1107Q1259 1107 1481 1197L1460 1252L1391 1342L1391 1356L1183 1183Q1086 1266 1017 1273L1052 1543L1017 1550L872 1543L920 1273Q816 1245 761 1183L740 1183L554 1342L540 1342L457 1204L457 1183L713 1093Q692 1079 699 934L713 906L699 893L671 893Q519 816 470 816L457 803L547 650Z"  horiz-adv-x="2035" vert-adv-y="2048"  />

      
      <glyph glyph-name="uni24" unicode="&#x24;" d="M500 1737L514 1737Q400 1588 344 1410L329 1275Q365 920 628 813Q756 799 827 877Q848 877 905 1048L905 1232L863 1353Q756 1517 678 1545Q692 1595 763 1666L792 1659Q863 1602 912 1510L920 1510Q927 1574 898 1666L841 1766L1012 1965L1183 1759L1119 1652L1104 1602L1097 1503L1112 1503L1190 1624L1240 1666Q1261 1673 1304 1624L1346 1560L1225 1446L1140 1318Q1026 912 1311 813Q1467 799 1574 934Q1645 1019 1695 1218Q1737 1446 1517 1737Q1851 1531 1922 1090L1922 877Q1894 671 1830 550Q1574 102 1090 52Q664 31 386 294Q116 571 102 877Q73 1424 500 1737Z"  horiz-adv-x="2059" vert-adv-y="2048"  />

      
      <glyph glyph-name="uni25" unicode="&#x25;" d="M889 1104L965 1104L1104 1041Q1180 1062 1229 826Q1236 764 1180 673L1132 618L1034 569Q875 548 778 618L757 632L680 771L694 923L722 958Q694 1014 889 1104M778 1777Q812 1777 819 1749Q805 1645 819 1541L798 1520L764 1534L743 1611L687 1701Q680 1743 708 1749L778 1777M854 1395L861 1479L882 1527Q861 1562 896 1659L882 1756L903 1826L903 1944L916 1965L937 1965Q944 1916 958 1916L958 1854L972 1826L986 1722L979 1680Q1027 1520 1021 1465Q1007 1402 1021 1340L1000 1319L882 1319Q854 1340 854 1395M1076 1770Q1173 1749 1187 1722L1118 1562L1097 1541Q1062 1548 1062 1562L1062 1749L1076 1770M1270 1694L1298 1687L1298 1611L1270 1534Q1277 1479 1250 1416L1257 1361L1305 1326L1375 1326L1513 1409L1541 1402L1513 1333L1472 1291L1465 1257L1430 1222L1472 1145L1618 1159Q1743 1201 1784 1166L1673 1069L1604 1034L1569 993L1590 896Q1666 854 1722 854L1770 826L1777 805Q1722 771 1604 757Q1576 743 1576 618L1687 569L1784 486L1770 465L1666 486Q1604 479 1562 507Q1506 514 1465 486L1472 410L1548 278L1548 243L1520 243L1500 264L1368 326Q1284 326 1277 264Q1270 243 1298 160Q1277 146 1319 28L1305 0Q1284-7 1264 21Q1180 132 1180 160L1132 215Q1097 229 1027 215L1000 174Q1014 118 965 35L916 42Q896 69 903 181Q861 250 764 208L660 49L618 14L597 35L597 76L611 104L625 229Q687 278 576 340L535 340L493 305L389 257L361 264L382 340L430 382L430 423Q465 458 451 472L403 535L326 535Q181 493 118 500Q104 535 125 542L194 576L257 632L305 646Q361 722 333 750L264 784L125 819L125 840L312 889Q354 965 312 1014L97 1139L76 1173L97 1187L292 1145L382 1139Q417 1215 437 1208L437 1236L382 1340Q326 1395 375 1423L403 1423L437 1382L465 1375Q535 1277 646 1375Q618 1444 618 1513Q597 1541 604 1590Q569 1611 590 1687L625 1673L701 1583L701 1555L764 1493L798 1430L798 1333L778 1312L715 1291L687 1264L639 1243L583 1201L507 1111Q493 1048 472 1041L458 993L458 937Q417 916 451 729L507 597L548 535L618 486L646 437L715 410L757 361L896 333L909 312L1034 312L1118 354Q1152 340 1243 389L1270 437Q1312 437 1326 465L1326 493L1361 514L1444 646Q1458 791 1486 798L1465 854L1465 903L1437 937Q1451 965 1437 993Q1416 1014 1423 1041Q1388 1062 1382 1104L1284 1208L1097 1319L1083 1395L1111 1465L1159 1520L1166 1555Q1236 1659 1250 1652L1270 1694Z"  horiz-adv-x="1923" vert-adv-y="2048"  />

      
      <glyph glyph-name="uni26" unicode="&#x26;" d="M1331 1644L1393 1651L1512 1707L1526 1728L1553 1728L1553 1693L1477 1553Q1449 1470 1505 1463L1574 1463Q1707 1505 1783 1498Q1790 1470 1679 1393Q1658 1400 1581 1344L1588 1226L1602 1212L1762 1177L1783 1156L1714 1108Q1686 1128 1595 1066L1574 961L1783 815L1790 801L1769 787L1679 787Q1609 815 1477 822Q1449 752 1435 759L1435 738Q1484 711 1484 669Q1553 585 1539 564L1372 641Q1247 641 1254 550L1275 488Q1275 390 1303 341L1296 272L1261 286L1254 313L1219 341Q1149 439 1156 460Q1122 474 1108 515L1087 571L1101 648L1282 759L1393 871Q1393 913 1428 933Q1421 954 1449 1010L1442 1038L1470 1080Q1463 1108 1491 1170Q1456 1191 1449 1317L1421 1344L1407 1393L1365 1456L1331 1477L1331 1505L1268 1539L1247 1560Q1254 1588 1170 1616Q1080 1616 1038 1658L913 1658L899 1637Q836 1637 745 1602Q745 1581 662 1533L606 1470Q509 1435 439 1142L439 1066L460 1024L460 968L515 836L585 759Q752 655 787 648L801 627Q808 529 780 495Q745 439 704 411L704 383L613 279L585 286L585 355L606 383L606 432L627 481L627 536Q648 585 641 606L571 641L509 634Q481 627 467 592Q425 585 404 543L355 557L355 606Q453 731 439 752L397 787L383 829Q313 836 118 780L77 794L104 836L320 968Q348 996 320 1080L125 1128Q118 1156 139 1156L258 1184L272 1198Q376 1212 320 1317Q313 1303 111 1442Q104 1477 132 1477L341 1435L418 1442L453 1498Q460 1519 432 1553L432 1595L383 1630L362 1686L369 1714L425 1700L522 1651Q564 1588 648 1693Q641 1741 627 1741L627 1811L599 1902L606 1957L634 1950L711 1860Q711 1825 773 1762Q815 1741 864 1748L906 1783Q899 1902 926 1937Q982 1944 982 1923Q1010 1867 1010 1783Q1031 1741 1142 1755L1184 1804L1233 1909L1289 1971L1324 1957L1296 1853L1303 1797Q1247 1714 1331 1644M885 1400L1038 1400L1142 1344L1198 1275L1233 1170L1205 1024L1149 933L1003 885L968 864L892 864L794 913L724 975L724 1010Q690 1017 683 1142L683 1198L759 1337L885 1400M885 648L1003 648L1024 627Q1010 578 1024 474L1003 341L992 282L989 244L972-14L952-238Q946-272 938-340Q906 7 906 21L892 144L890 218L884 308L874 422L874 454Q857 488 857 564Q857 634 885 648M780 446Q801 453 822 425Q808 320 822 216L801 188L690 230L690 265L745 355L766 432L780 446M1080 425Q1101 432 1122 404L1191 265L1184 230L1108 195Q1073 188 1066 216L1066 404L1080 425M886 306Z"  horiz-adv-x="1887" vert-adv-y="2048"  />

      
      <glyph glyph-name="uni27" unicode="&#x27;" d="M170 813L170 1444L477 1444L477 813L170 813Z"  horiz-adv-x="647" vert-adv-y="2048"  />

      
      <glyph glyph-name="uni28" unicode="&#x28;" d="M725-105L350-105Q265 37 202.50 190.50Q140 344 106 502Q72 660 72 821Q72 1275 350 1749L725 1749Q667 1642 624 1531Q581 1420 551.50 1300.50Q522 1181 508 1061Q494 941 494 821Q494 702 508.50 581Q523 460 551.50 342Q580 224 623 113.50Q666 3 725-105Z"  horiz-adv-x="758" vert-adv-y="2048"  />

      
      <glyph glyph-name="uni29" unicode="&#x29;" d="M410-105L35-105Q266 319 266 821Q266 941 251 1067Q236 1193 208 1306Q180 1419 134 1537Q88 1655 35 1749L410 1749Q496 1604 557.50 1453Q619 1302 653.50 1142.50Q688 983 688 821Q688 659 653.50 499.50Q619 340 557 189.50Q495 39 410-105Z"  horiz-adv-x="758" vert-adv-y="2048"  />

      
      <glyph glyph-name="uni2a" unicode="&#x2a;" d="M363 1275Q392 1275 531 1113L525 1079Q398 998 294 865Q213 762 202 635Q237 554 254 542L369 456Q427 450 462 467L485 508L502 508Q513 490 473 427L410 392Q335 381 213 444Q127 508 87 640Q81 756 104 819L115 831L121 894L138 929L156 1004L173 1021Q190 1073 283 1194L363 1275M473 1650L490 1621Q467 1546 485 1431L537 1373Q554 1385 623 1321L669 1246L675 1200L698 1165L698 1148L715 1154L733 1200L727 1246Q692 1252 704 1390L635 1517L635 1540L594 1581L577 1575L525 1621L496 1702Q456 1736 462 1748Q456 1823 479 1846L513 1875L525 1875L565 1915Q577 1927 652 1892L588 1760L675 1713L675 1604L704 1708L704 1754L658 1783L675 1817L733 1886L762 1875Q860 1881 871 1863L888 1846L1021 1875Q1044 1863 1067 1875Q1090 1858 1096 1742L1067 1679L1027 1638L1027 1621L981 1592L900 1563L871 1511Q831 1500 767 1442Q767 1367 796 1304L790 1298L813 1165L825 1165L848 1310L883 1315L992 1373L1061 1454L1050 1563L1096 1644L1119 1667L1136 1638L1136 1592Q1119 1598 1125 1546L1142 1552L1165 1436L1160 1408L1067 1304L1015 1200Q1033 1194 1027 1165Q1027 1136 1004 1125L917 1073L906 1038L906 1015L935 958Q923 946 940 888L900 837Q888 802 900 762L871 710L877 571Q900 560 900 508Q883 473 837 462L819 421L825 369Q854 346 842 329L837 329L842 213L825 179L842 138L837 133L842 6L819 23L819 6L790 12L802 277L785 462L790 467L779 525Q790 629 779 658L819 715L842 831Q877 894 865 940Q842 946 785 900Q796 854 785 802L762 698L721 773L727 860L675 958L658 906Q652 871 675 767Q733 715 727 698L715 658L727 531Q756 473 744 444L756 40L750 40Q762 12 744 0Q727 12 692 0Q704 104 692 110L715 404L698 467L594 588L617 767L612 929L577 975L571 1033L594 1073L594 1113L519 1183L525 1211L502 1246Q410 1304 404 1327Q427 1344 427 1361L427 1385Q387 1454 392 1454L421 1488L450 1569Q438 1633 473 1650M1027 1096L1056 1165L1119 1217L1148 1275L1177 1310L1206 1310L1281 1246L1361 1165L1367 1142L1379 1136Q1408 1073 1419 1079Q1500 900 1517 698Q1540 675 1442 519Q1385 456 1304 433Q1148 427 1108 467L1108 479Q1136 462 1206 467L1263 496L1321 542L1361 623Q1350 762 1286 837L1165 992L1073 1067L1061 1090Q1056 1079 1027 1096M600 490Q623 496 663 450L652 329L652 208L617 277Q617 387 588 456Q583 485 600 490M871 427Q906 438 917 398L923 329L917 225L935 225L940 179L923 156L923 138L888 63Q888 329 848 392Q848 421 871 427Z"  horiz-adv-x="1620" vert-adv-y="2048"  />

      
      <glyph glyph-name="uni2b" unicode="&#x2b;" d="M-100 1014L-100 1444L1556 1444L1556 1014L-100 1014Z"  horiz-adv-x="1456" vert-adv-y="2048"  />

      
      <glyph glyph-name="uni2c" unicode="&#x2c;" d="M188 397L623 397L387-233L61-233L188 397Z"  horiz-adv-x="758" vert-adv-y="2048"  />

      
      <glyph glyph-name="uni2d" unicode="&#x2d;" d="M92 377L92 737L666 737L666 377L92 377Z"  horiz-adv-x="758" vert-adv-y="2048"  />

      
      <glyph glyph-name="uni2e" unicode="&#x2e;" d="M156 0L156 397L602 397L602 0L156 0Z"  horiz-adv-x="758" vert-adv-y="2048"  />

      
      <glyph glyph-name="uni2f" unicode="&#x2f;" d="M518 1468L881 1468L240-25L-123-25L518 1468Z"  horiz-adv-x="758" vert-adv-y="2048"  />

      
      <glyph glyph-name="uni30" unicode="&#x30;" d="M47 721Q47 883 93.50 1019.50Q140 1156 230.50 1257.50Q321 1359 454 1413.50Q587 1468 760 1468Q923 1468 1054.50 1416Q1186 1364 1278.50 1264.50Q1371 1165 1419.50 1027.50Q1468 890 1468 721Q1468 496 1387 327.50Q1306 159 1145.50 67Q985-25 760-25Q536-25 374.50 68.50Q213 162 130 332Q47 502 47 721M584 721Q584 613 588 545Q592 477 607.50 421Q623 365 660.50 331Q698 297 760 297Q839 297 877 353.50Q915 410 923.50 493.50Q932 577 932 721Q932 871 923.50 955Q915 1039 877.50 1093Q840 1147 760 1147Q678 1147 639.50 1092.50Q601 1038 592.50 954.50Q584 871 584 721Z"  horiz-adv-x="1516" vert-adv-y="2048"  />

      
      <glyph glyph-name="uni31" unicode="&#x31;" d="M119 705L-27 1081L512 1444L952 1444L952 0L436 0L436 938L119 705Z"  horiz-adv-x="1065" vert-adv-y="2048"  />

      
      <glyph glyph-name="uni32" unicode="&#x32;" d="M586 348L1171 348L1171 0L41 0L41 406Q277 524 459 641Q550 704 602.50 765Q655 826 655 907Q655 1011 578 1059.50Q501 1108 389 1108Q212 1108 70 1047L70 1423Q184 1444 296 1456Q408 1468 522 1468Q797 1468 984 1360Q1171 1252 1171 995Q1171 878 1118.50 780Q1066 682 983 606.50Q900 531 812 477Q724 423 586 352L586 348Z"  horiz-adv-x="1212" vert-adv-y="2048"  />

      
      <glyph glyph-name="uni33" unicode="&#x33;" d="M223 567L223 883Q301 879 338 879Q408 879 464 885Q520 891 566 918Q612 945 612 1001Q612 1080 551 1113.50Q490 1147 403 1147Q316 1147 223.50 1130Q131 1113 57 1090L57 1413Q152 1443 267 1455.50Q382 1468 528 1468Q640 1468 747 1446Q854 1424 946 1376.50Q1038 1329 1093.50 1250Q1149 1171 1149 1063Q1149 817 874 737L874 733Q1169 656 1169 399Q1169 251 1077.50 156Q986 61 843 18Q700-25 539-25Q416-25 277.50-8.50Q139 8 43 35L43 371Q113 347 212.50 329Q312 311 403 311Q512 311 572.50 338.50Q633 366 633 440Q633 522 562.50 552Q492 582 399 582Q336 582 223 567Z"  horiz-adv-x="1212" vert-adv-y="2048"  />

      
      <glyph glyph-name="uni34" unicode="&#x34;" d="M426 584L810 584L810 1035L426 584M1158 584L1409 584L1409 276L1157 276L1157 0L810 0L810 276L33 276L33 584L810 1444L1157 1444L1158 584Z"  horiz-adv-x="1442" vert-adv-y="2048"  />

      
      <glyph glyph-name="uni35" unicode="&#x35;" d="M1104 1444L1104 1108L565 1108L565 885Q620 891 725 891Q845 891 947 837Q1049 783 1109 682Q1169 581 1169 449Q1169 273 1076 167.50Q983 62 837 18.50Q691-25 516-25Q454-25 375-18Q296-11 222.50 3Q149 17 76 37L76 367Q259 324 377 324Q633 324 633 487Q633 587 549.50 625.50Q466 664 350 664Q233 664 94 631L94 1444L1104 1444Z"  horiz-adv-x="1212" vert-adv-y="2048"  />

      
      <glyph glyph-name="uni36" unicode="&#x36;" d="M1237 1430L1237 1096Q1212 1102 1164.50 1114Q1117 1126 1081.50 1132Q1046 1138 993.50 1142.50Q941 1147 881 1147Q741 1147 645 1079Q549 1011 549 858Q600 900 679.50 923Q759 946 870 946Q1000 946 1114.50 891.50Q1229 837 1298.50 732Q1368 627 1368 483Q1368 314 1278.50 199.50Q1189 85 1044.50 30Q900-25 735-25Q530-25 369 66Q208 157 120.50 320Q33 483 33 690Q33 938 131 1114Q229 1290 403 1379Q577 1468 801 1468Q1055 1468 1237 1430M897 483Q897 569 850 620.50Q803 672 721 672Q637 672 593 619Q549 566 549 471Q549 391 594.50 338Q640 285 721 285Q801 285 849 341Q897 397 897 483Z"  horiz-adv-x="1401" vert-adv-y="2048"  />

      
      <glyph glyph-name="uni37" unicode="&#x37;" d="M25 1444L1188 1444L1188 1047L674 0L59 0L668 1047L25 1047L25 1444Z"  horiz-adv-x="1212" vert-adv-y="2048"  />

      
      <glyph glyph-name="uni38" unicode="&#x38;" d="M25 385Q25 667 311 735L311 739Q222 769 164.50 810.50Q107 852 78 917Q49 982 49 1073Q49 1185 104.50 1261.50Q160 1338 254.50 1383.50Q349 1429 462 1448.50Q575 1468 698 1468Q870 1468 1014.50 1431.50Q1159 1395 1250 1306.50Q1341 1218 1341 1073Q1341 940 1275.50 862Q1210 784 1083 737L1083 739L1083 735Q1215 702 1295.50 614.50Q1376 527 1376 385Q1376 271 1316.50 191Q1257 111 1160 64Q1063 17 942-4Q821-25 698-25Q531-25 378 14Q225 53 125 144Q25 235 25 385M860 467Q860 549 820 600Q780 651 698 651Q616 651 578.50 599.50Q541 548 541 463Q541 379 579 325.50Q617 272 698 272Q780 272 820 326.50Q860 381 860 467M545 1036Q545 961 585.50 914Q626 867 698 866Q767 866 806.50 913.50Q846 961 846 1032Q846 1101 806.50 1148.50Q767 1196 698 1196Q627 1196 586 1149.50Q545 1103 545 1036Z"  horiz-adv-x="1401" vert-adv-y="2048"  />

      
      <glyph glyph-name="uni39" unicode="&#x39;" d="M164 14L164 348Q220 333 268 322Q316 311 380 304Q444 297 520 297Q658 297 755 365Q852 433 852 586Q742 498 530 498Q401 498 287 551.50Q173 605 103 711Q33 817 33 961Q33 1089 85.50 1185.50Q138 1282 228 1344.50Q318 1407 430 1437.50Q542 1468 666 1468Q821 1468 951 1416.50Q1081 1365 1174 1269.50Q1267 1174 1317.50 1041.50Q1368 909 1368 754Q1368 506 1270 329.50Q1172 153 998.50 64Q825-25 600-25Q351-25 164 14M504 961Q504 876 552 824Q600 772 680 772Q765 772 808.50 825Q852 878 852 973Q852 1054 808 1106.50Q764 1159 680 1159Q599 1159 551.50 1103.50Q504 1048 504 961Z"  horiz-adv-x="1401" vert-adv-y="2048"  />

      
      <glyph glyph-name="uni3a" unicode="&#x3a;" d="M156 0L156 397L602 397L602 0L156 0M156 680L156 1077L602 1077L602 680L156 680Z"  horiz-adv-x="758" vert-adv-y="2048"  />

      
      <glyph glyph-name="uni3b" unicode="&#x3b;" d="M60 0L60 1014L0 1014L0 1444L1298 1444L1298 1014L530 1014L530 848L1026 848L1026 596L530 596L530 430L1760 430L1760 0L60 0Z"  horiz-adv-x="1360" vert-adv-y="2048"  />

      
      <glyph glyph-name="uni3c" unicode="&#x3c;" d="M-1656-512L-1656-82L0-82L0-512L-1656-512Z"   vert-adv-y="2048"  />

      
      <glyph glyph-name="uni3d" unicode="&#x3d;" d="M-100 0L-100 430L1556 430L1556 0L-100 0Z"  horiz-adv-x="1456" vert-adv-y="2048"  />

      
      <glyph glyph-name="uni3e" unicode="&#x3e;" d="M0-512L0-82L1656-82L1656-512L0-512Z"   vert-adv-y="2048"  />

      
      <glyph glyph-name="uni3f" unicode="&#x3f;" d="M711 535L301 535Q309 678 348 753.50Q387 829 437.50 866.50Q488 904 531.50 938Q575 972 575 1024Q575 1076 523 1092Q471 1108 373 1108Q304 1108 222.50 1087.50Q141 1067 84 1040L84 1393Q202 1430 305.50 1449Q409 1468 530 1468Q652 1468 780 1439.50Q908 1411 1000 1333Q1092 1255 1092 1120Q1092 1016 1043.50 947.50Q995 879 896.50 799Q798 719 754.50 667Q711 615 711 535M283 385L729 385L729 0L283 0L283 385Z"  horiz-adv-x="1176" vert-adv-y="2048"  />

      
      <glyph glyph-name="uni40" unicode="&#x40;" d="M5371 882L4590 882Q4314 882 4262 614Q4210 346 4558 26Q4770-146 4486-132L4179-132L4179-562L4950-562Q5262-510 5268-242Q5274 26 4950 310Q4770 470 5026 452L5370 452L5371 882M2206 2516L2206 2086L1748 2086L1748 1072L1278 1072L1278 2086L950 2086L950 2516L2206 2516M932-560L1410 882L2126 882L2607-560L2061-560L1970-300L1541-300L1450-560L932-560M1771 548L1564-24L1962-24L1771 548M2628-562L2628 882L3568 882Q3742 866 3854 790Q3966 714 4018 586Q4058 394 4022 290Q3986 186 3896 116Q3806 46 3638 6L3746-132L4178-132L4178-562L3608-562L3150-85L3150-562L2628-562M3150 532L3150 266L3514 266Q3543 266 3577 287.50Q3611 309 3613 396Q3608 479 3572.50 505.50Q3537 532 3513 532L3150 532M-469 882L-213 258L-79 882L391 882L29-562L-441-562L-981 882L-469 882M392 882L593 258L800 882L1310 882L835-562L365-562L184 52L336 659L392 882M1968 1072L2443 2516L3160 2516L3643 1072L3097 1072L3006 1332L2577 1332L2486 1072L1968 1072M2807 2180L2600 1608L2998 1608L2807 2180M3684 1072L3684 2516L4624 2516Q4798 2500 4910 2424Q5022 2348 5074 2220Q5114 2028 5078 1924Q5042 1820 4952 1750Q4862 1680 4694 1640L4802 1502L5234 1502L5234 1072L4664 1072L4206 1549L4206 1072L3684 1072M4190 2164L4190 1898L4554 1898Q4583 1898 4617 1919.50Q4651 1941 4653 2028Q4648 2111 4612.50 2137.50Q4577 2164 4553 2164L4190 2164M949 2516L275 2516Q-1 2516-53 2248Q-105 1980 243 1660Q455 1488 171 1502L-741 1502L-741 1072L635 1072Q947 1124 953 1392Q959 1660 635 1944Q455 2104 711 2086L949 2086L949 2516Z"  horiz-adv-x="5507" vert-adv-y="2048"  />

      
      <glyph glyph-name="uni41" unicode="&#x41;" d="M755 1124L548 552L946 552L755 1124M-100 1014L-100 1444L1112 1444L1595 0L1049 0L958 260L529 260L438 0L-80 0L253 1014L-100 1014Z"  horiz-adv-x="1515" vert-adv-y="2048"  />

      
      <glyph glyph-name="uni42" unicode="&#x42;" d="M60 0L60 1014L-240 1014L-240 1444L1045 1444Q1282 1442 1405.50 1362Q1529 1282 1555 1094Q1564 950 1494 868Q1424 786 1263 733L1263 729Q1342 719 1409 686.50Q1476 654 1521.50 609.50Q1567 565 1592 509Q1617 453 1617 399Q1617 228 1529.50 140Q1442 52 1304.50 25Q1167-2 971 0L60 0M558 559L558 292L879 292Q962 289 1024 328Q1086 367 1086 424Q1092 487 1035.50 523Q979 559 879 559L558 559M558 1094L558 875L908 875Q937 875 969 905.50Q1001 936 1003 987Q999 1046 964.50 1070Q930 1094 907 1094L558 1094Z"  horiz-adv-x="1628" vert-adv-y="2048"  />

      
      <glyph glyph-name="uni43" unicode="&#x43;" d="M478 738Q486 618 530 558Q574 498 635 463Q696 428 820 412Q948 420 1004 446Q1060 472 1132 532L1416 216Q1292 100 1170 56Q1048 12 816 0Q592 12 477 65.50Q362 119 249.50 207.50Q137 296 73.50 429.50Q10 563 10 739Q10 913 73.50 1046.50Q137 1180 249.50 1268.50Q362 1357 477 1410.50Q592 1464 816 1476Q1048 1464 1170 1420Q1292 1376 1416 1260L1132 944Q1060 1004 1004 1030Q948 1056 820 1064Q696 1048 635 1013Q574 978 530 918Q486 858 478 738Z"  horiz-adv-x="1440" vert-adv-y="2048"  />

      
      <glyph glyph-name="uni44" unicode="&#x44;" d="M60 0L60 1014L-240 1014L-240 1444L912 1444Q1085 1444 1217 1398Q1349 1352 1440 1274Q1531 1196 1591.50 1063Q1652 930 1652 717Q1641 520 1586 382Q1531 244 1440 164Q1349 84 1217.50 40Q1086-4 888 0L60 0M542 1086L542 360L817 360Q910 360 967 399.50Q1024 439 1060 500.50Q1096 562 1106 722Q1103 868 1065.50 937.50Q1028 1007 969 1046.50Q910 1086 815 1086L542 1086Z"  horiz-adv-x="1662" vert-adv-y="2048"  />

      
      <glyph glyph-name="uni45" unicode="&#x45;" d="M60 0L60 1014L-240 1014L-240 1444L1298 1444L1298 1014L530 1014L530 848L1026 848L1026 596L530 596L530 430L1420 430L1420 0L60 0Z"  horiz-adv-x="1360" vert-adv-y="2048"  />

      
      <glyph glyph-name="uni46" unicode="&#x46;" d="M60 0L60 1014L-240 1014L-240 1444L1298 1444L1298 1014L530 1014L530 848L1026 848L1026 596L530 596L530 0L60 0Z"  horiz-adv-x="1328" vert-adv-y="2048"  />

      
      <glyph glyph-name="uni47" unicode="&#x47;" d="M1001 430L1001 722L1440 722L1440 0L819 0Q591 0 406.50 83.50Q222 167 116 334Q10 501 10 743Q10 913 73.50 1046.50Q137 1180 249.50 1268.50Q362 1357 477 1410.50Q592 1464 816 1476Q1048 1464 1170 1420Q1292 1376 1416 1260L1132 944Q1060 1004 1004 1030Q948 1056 820 1064Q696 1048 638 1010Q580 972 536 912Q492 852 480 728Q492 604 536 554Q580 504 646 472Q712 440 788 432Q864 424 1001 430Z"  horiz-adv-x="1440" vert-adv-y="2048"  />

      
      <glyph glyph-name="uni48" unicode="&#x48;" d="M888 946L888 1444L1358 1444L1358 0L888 0L888 520L510 520L510 0L40 0L40 1014L-260 1014L-260 1444L510 1444L510 946L888 946Z"  horiz-adv-x="1398" vert-adv-y="2048"  />

      
      <glyph glyph-name="uni49" unicode="&#x49;" d="M888 946L888 1444L1758 1444L1758 1014L1358 1014L1358 0L888 0L888 520L510 520L510 0L40 0L40 1444L510 1444L510 946L888 946Z"  horiz-adv-x="1398" vert-adv-y="2048"  />

      
      <glyph glyph-name="uni4a" unicode="&#x4a;" d="M1046 1444L1046 1014L796 1014L796-8Q790-174 760-242Q730-310 653-370Q576-430 460-461Q344-492 250-502Q156-512 0-512L0-82Q88-84 141-76Q194-68 231-50Q268-32 291 1Q314 34 326 124L326 1444L1046 1444Z"  horiz-adv-x="877" vert-adv-y="2048"  />

      
      <glyph glyph-name="uni4b" unicode="&#x4b;" d="M530 1444L530 974L860 1444L1330 1444L792 722L1032 430L1804 430L1804 0L894 0L530 430L530 0L60 0L60 1444L530 1444Z"  horiz-adv-x="1404" vert-adv-y="2048"  />

      
      <glyph glyph-name="uni4c" unicode="&#x4c;" d="M60 0L60 1014L-240 1014L-240 1444L530 1444L530 430L1312 430L1312 0L60 0Z"  horiz-adv-x="1312" vert-adv-y="2048"  />

      
      <glyph glyph-name="uni4d" unicode="&#x4d;" d="M40 0L40 1014L-260 1014L-260 1444L510 1444L826 844L1140 1444L1610 1444L1610 0L1140 0L1140 600L838 0L812 0L510 600L510 0L40 0Z"  horiz-adv-x="1650" vert-adv-y="2048"  />

      
      <glyph glyph-name="uni4e" unicode="&#x4e;" d="M60 0L60 1444L530 1444L960 904L960 1444L1830 1444L1830 1014L1430 1014L1430 0L960 0L530 540L530 0L60 0Z"  horiz-adv-x="1430" vert-adv-y="2048"  />

      
      <glyph glyph-name="uni4f" unicode="&#x4f;" d="M60 0L60 1014L-240 1014L-240 1444L530 1444L960 904L960 1444L1430 1444L1430 0L960 0L530 540L530 0L60 0Z"  horiz-adv-x="1430" vert-adv-y="2048"  />

      
      <glyph glyph-name="uni50" unicode="&#x50;" d="M60 0L60 1014L-240 1014L-240 1444L1000 1444Q1174 1428 1288 1354Q1402 1280 1450 1148Q1494 988 1486 908Q1478 828 1454 758Q1430 688 1322 596Q1214 504 1034 477L582 477L582 0L60 0M582 1084L582 818L946 818Q975 818 1009 839.50Q1043 861 1045 948Q1040 1031 1004.50 1057.50Q969 1084 945 1084L582 1084Z"  horiz-adv-x="1501" vert-adv-y="2048"  />

      
      <glyph glyph-name="uni51" unicode="&#x51;" d="M1610 0L1610 1014L2010 1014L2010 1444L1140 1444L824 844L510 1444L40 1444L40 0L510 0L510 600L812 0L838 0L1140 600L1140 0L1610 0Z"  horiz-adv-x="1650" vert-adv-y="2048"  />

      
      <glyph glyph-name="uni52" unicode="&#x52;" d="M60 0L60 1444L1000 1444Q1174 1428 1286 1352Q1398 1276 1450 1148Q1490 956 1454 852Q1418 748 1328 678Q1238 608 1070 568L1178 430L1950 430L1950 0L1040 0L582 477L582 0L60 0M582 1084L582 818L946 818Q975 818 1009 839.50Q1043 861 1045 948Q1040 1031 1004.50 1057.50Q969 1084 945 1084L582 1084Z"  horiz-adv-x="1550" vert-adv-y="2048"  />

      
      <glyph glyph-name="uni53" unicode="&#x53;" d="M1298 1444L408 1444Q132 1444 80 1176Q28 908 376 588Q587 422 304 430L-492 430L-492 0L768 0Q1080 52 1086 320Q1092 588 768 872Q587 1022 844 1014L1298 1014L1298 1444Z"  horiz-adv-x="1135" vert-adv-y="2048"  />

      
      <glyph glyph-name="uni54" unicode="&#x54;" d="M1228 1444L1228 1014L770 1014L770 0L300 0L300 1014L-158 1014L-158 1444L1228 1444Z"  horiz-adv-x="1070" vert-adv-y="2048"  />

      
      <glyph glyph-name="uni55" unicode="&#x55;" d="M60 0L60 372L60 1444L530 1444L530 974L860 1444L1330 1444L792 722L1252 4Q1314-88 1404-82L1404-512Q1154-514 1052-332L530 430L530 0L60 0Z"  horiz-adv-x="1404" vert-adv-y="2048"  />

      
      <glyph glyph-name="uni56" unicode="&#x56;" d="M60 372L60 1444L1000 1444Q1174 1428 1279 1358Q1384 1288 1422 1223Q1460 1158 1476 1064Q1492 970 1455 859Q1418 748 1328 678Q1238 608 1070 568L1442-40Q1478-92 1550-82L1550-512Q1264-520 1176-400L582 477L582 0L60 0L60 372M582 1084L582 818L946 818Q975 818 1009 839.50Q1043 861 1045 948Q1040 1031 1004.50 1057.50Q969 1084 945 1084L582 1084Z"  horiz-adv-x="1550" vert-adv-y="2048"  />

      
      <glyph glyph-name="uni57" unicode="&#x57;" d="M1006 612L854 0L384 0L52 1014L-248 1014L-248 1444L414 1444L612 820L784 1444L1216 1444L1417 820L1551 1444L2016 1444L1659 0L1189 0L1006 612Z"  horiz-adv-x="1800" vert-adv-y="2048"  />

      
      <glyph glyph-name="uni58" unicode="&#x58;" d="M564 1014L0 1014L0 1444L1000 1444Q1174 1428 1286 1352Q1398 1276 1450 1148Q1490 956 1454 852Q1418 748 1328 678Q1238 608 1070 568L1178 430L1610 430L1610 0L1040 0L582 477L582 0L60 0L60 864L946 864Q975 864 1009 877Q1043 890 1045 937Q1040 984 1004.50 998.50Q969 1013 945 1013L564 1014Z"  horiz-adv-x="1550" vert-adv-y="2048"  />

      
      <glyph glyph-name="uni59" unicode="&#x59;" d="M-136 1444L-136 1014L164 1014L500 530L500 0L972 0L972 530L1602 1444L1032 1444L738 998L440 1444L-136 1444Z"  horiz-adv-x="1472" vert-adv-y="2048"  />

      
      <glyph glyph-name="uni5a" unicode="&#x5a;" d="M739 1124L946 552L548 552L739 1124M1594 1014L1594 1444L382 1444L-101 0L445 0L536 260L965 260L1056 0L1574 0L1241 1014L1594 1014Z"  horiz-adv-x="1515" vert-adv-y="2048"  />

      
      <glyph glyph-name="uni5b" unicode="&#x5b;" d="M530 1444L530 974L860 1444L1330 1444L792 722L1032 430L1804 430L1804 0L894 0L530 430L530 0L60 0L60 1014L-240 1014L-240 1444L530 1444Z"  horiz-adv-x="1404" vert-adv-y="2048"  />

      
      <glyph glyph-name="uni5c" unicode="&#x5c;" d="M-296 0L-296 430L354 430L354 0L-296 0Z"  horiz-adv-x="56" vert-adv-y="2048"  />

      
      <glyph glyph-name="uni5d" unicode="&#x5d;" d="M922 612L770 0L300 0L-140 1444L330 1444L528 820L700 1444L1132 1444L1333 820L1467 1444L2230 1444L2230 1014L1830 1014L1575 0L1105 0L922 612Z"  horiz-adv-x="1800" vert-adv-y="2048"  />

      
      <glyph glyph-name="uni5e" unicode="&#x5e;" d="M923 1302Q1207 1314 1279 1036Q1290 752 1012 681Q728 669 657 947Q645 1231 923 1302M0 1249Q107 1634 450 1853Q592 1930 716 1965Q858 2001 959 1989Q1296 2007 1610 1764Q1859 1545 1941 1225L1941 1202L1574 1202Q1521 1403 1273 1563Q1030 1693 764 1610L645 1557Q450 1438 361 1202L0 1202L0 1249M1574 787L1941 787Q1870 444 1610 225Q1344 18 1048 0Q906-6 793 12Q172 148 0 740L0 787L361 787Q545 337 1036 355Q1249 379 1415 527Q1533 645 1580 787L1574 787Z"  horiz-adv-x="2059" vert-adv-y="2048"  />

      
      <glyph glyph-name="uni5f" unicode="&#x5f;" d="M974 1444L974 590Q980 444 918 387Q856 330 724 326Q618 328 547 388Q476 448 480 590L480 1444L-290 1444L-290 1014L10 1014L10 597Q13 417 69.50 309.50Q126 202 212.50 130Q299 58 429.50 18Q560-22 720-26Q853-23 990.50 10.50Q1128 44 1230.50 116Q1333 188 1388.50 301Q1444 414 1444 596L1444 1444L974 1444Z"  horiz-adv-x="1454" vert-adv-y="2048"  />

      
      <glyph glyph-name="uni60" unicode="&#x60;" d="M1703 1444L1195 0L428 0L57 1014L-242 1014L-242 1444L492 1444L824 335L1152 1444L1703 1444Z"  horiz-adv-x="1630" vert-adv-y="2048"  />

      
      <glyph glyph-name="uni61" unicode="&#x61;" d="M-80 0L395 1444L1112 1444L1595 0L1049 0L958 260L529 260L438 0L-80 0M755 1124L548 552L946 552L755 1124Z"  horiz-adv-x="1515" vert-adv-y="2048"  />

      
      <glyph glyph-name="uni62" unicode="&#x62;" d="M60 0L60 1444L1045 1444Q1282 1442 1405.50 1362Q1529 1282 1555 1094Q1564 950 1494 868Q1424 786 1263 733L1263 729Q1342 719 1409 686.50Q1476 654 1521.50 609.50Q1567 565 1592 509Q1617 453 1617 399Q1617 228 1529.50 140Q1442 52 1304.50 25Q1167-2 971 0L60 0M558 559L558 292L879 292Q962 289 1024 328Q1086 367 1086 424Q1092 487 1035.50 523Q979 559 879 559L558 559M558 1094L558 875L908 875Q937 875 969 905.50Q1001 936 1003 987Q999 1046 964.50 1070Q930 1094 907 1094L558 1094Z"  horiz-adv-x="1628" vert-adv-y="2048"  />

      
      <glyph glyph-name="uni63" unicode="&#x63;" d="M1032 430L1484 430L1484 0L844 0Q609 0 419 83.50Q229 167 119.50 334Q10 501 10 743Q10 913 75.50 1046.50Q141 1180 257 1268.50Q373 1357 523.50 1400.50Q674 1444 844 1444L1240 1444L1484 1444L1484 1014L1032 1014Q880 1014 807 1005Q734 996 677 975Q620 954 576 902Q532 850 525 718Q530 590 576 535Q622 480 688 462Q754 444 824 437Q894 430 1032 430Z"  horiz-adv-x="1484" vert-adv-y="2048"  />

      
      <glyph glyph-name="uni64" unicode="&#x64;" d="M60 0L60 1444L912 1444Q1085 1444 1217 1398Q1349 1352 1440 1274Q1531 1196 1591.50 1063Q1652 930 1652 717Q1641 520 1586 382Q1531 244 1440 164Q1349 84 1217.50 40Q1086-4 888 0L60 0M542 1086L542 360L817 360Q910 360 967 399.50Q1024 439 1060 500.50Q1096 562 1106 722Q1103 868 1065.50 937.50Q1028 1007 969 1046.50Q910 1086 815 1086L542 1086Z"  horiz-adv-x="1662" vert-adv-y="2048"  />

      
      <glyph glyph-name="uni65" unicode="&#x65;" d="M60 0L60 1444L1298 1444L1298 1014L530 1014L530 848L1026 848L1026 596L530 596L530 430L1420 430L1420 0L60 0Z"  horiz-adv-x="1360" vert-adv-y="2048"  />

      
      <glyph glyph-name="uni66" unicode="&#x66;" d="M60 0L60 1444L1298 1444L1298 1014L530 1014L530 848L1026 848L1026 596L530 596L530 0L60 0Z"  horiz-adv-x="1328" vert-adv-y="2048"  />

      
      <glyph glyph-name="uni67" unicode="&#x67;" d="M1032 430L1032 722L1484 722L1484 0L844 0Q609 0 419 83.50Q229 167 119.50 334Q10 501 10 743Q10 913 75.50 1046.50Q141 1180 257 1268.50Q373 1357 523.50 1400.50Q674 1444 844 1444L1240 1444L1484 1444L1484 1014L1032 1014Q880 1014 807 1005Q734 996 677 975Q620 954 576 902Q532 850 525 718Q530 590 576 535Q622 480 688 462Q754 444 824 437Q894 430 1032 430Z"  horiz-adv-x="1484" vert-adv-y="2048"  />

      
      <glyph glyph-name="uni68" unicode="&#x68;" d="M888 946L888 1444L1358 1444L1358 0L888 0L888 520L510 520L510 0L40 0L40 1444L510 1444L510 946L888 946Z"  horiz-adv-x="1398" vert-adv-y="2048"  />

      
      <glyph glyph-name="uni69" unicode="&#x69;" d="M40 1444L510 1444L510 0L40 0L40 1444Z"  horiz-adv-x="550" vert-adv-y="2048"  />

      
      <glyph glyph-name="uni6a" unicode="&#x6a;" d="M878 1444L878 1014L804 1014L804 454Q798 288 756 226Q714 164 633 105Q552 46 412 14Q276 4 191 3Q106 2 8 0L8 430Q86 410 184 430Q262 448 292 472Q322 496 334 586L334 1444L878 1444Z"  horiz-adv-x="879" vert-adv-y="2048"  />

      
      <glyph glyph-name="uni6b" unicode="&#x6b;" d="M530 1444L530 974L860 1444L1330 1444L792 722L1032 430L1464 430L1464 0L894 0L530 430L530 0L60 0L60 1444L530 1444Z"  horiz-adv-x="1404" vert-adv-y="2048"  />

      
      <glyph glyph-name="uni6c" unicode="&#x6c;" d="M60 0L60 1444L530 1444L530 430L1312 430L1312 0L60 0Z"  horiz-adv-x="1312" vert-adv-y="2048"  />

      
      <glyph glyph-name="uni6d" unicode="&#x6d;" d="M40 0L40 1444L510 1444L826 844L1140 1444L1610 1444L1610 0L1140 0L1140 600L838 0L812 0L510 600L510 0L40 0Z"  horiz-adv-x="1650" vert-adv-y="2048"  />

      
      <glyph glyph-name="uni6e" unicode="&#x6e;" d="M60 0L60 1444L530 1444L960 904L960 1444L1430 1444L1430 0L960 0L530 540L530 0L60 0Z"  horiz-adv-x="1430" vert-adv-y="2048"  />

      
      <glyph glyph-name="uni6f" unicode="&#x6f;" d="M1668 714Q1668 477 1569 310Q1470 143 1282.50 59Q1095-25 835-25Q575-25 388.50 59.50Q202 144 106 309.50Q10 475 10 714Q10 895 65 1032.50Q120 1170 226 1264Q332 1358 486 1406.50Q640 1455 835 1455Q1094 1455 1282 1369.50Q1470 1284 1569 1117.50Q1668 951 1668 714M523 710Q523 571 585.50 468Q648 365 832 365Q974 365 1044.50 419Q1115 473 1132.50 542.50Q1150 612 1156 710Q1150 849 1089 952.50Q1028 1056 832 1056Q523 1056 523 710Z"  horiz-adv-x="1677" vert-adv-y="2048"  />

      
      <glyph glyph-name="uni70" unicode="&#x70;" d="M60 0L60 1444L1000 1444Q1174 1428 1288 1354Q1402 1280 1450 1148Q1494 988 1486 908Q1478 828 1454 758Q1430 688 1322 596Q1214 504 1034 477L582 477L582 0L60 0M582 1084L582 818L946 818Q975 818 1009 839.50Q1043 861 1045 948Q1040 1031 1004.50 1057.50Q969 1084 945 1084L582 1084Z"  horiz-adv-x="1501" vert-adv-y="2048"  />

      
      <glyph glyph-name="uni71" unicode="&#x71;" d="M1639 430L1639 0L780-25Q595-20 453.50 28Q312 76 212 171.50Q112 267 61 405Q10 543 10 721Q10 903 63 1033.50Q116 1164 218 1260Q320 1356 464 1404Q608 1452 832 1464Q1060 1452 1234 1388Q1408 1324 1518 1176Q1628 1028 1616 736Q1592 604 1521.50 506Q1451 408 1597 430L1639 430M527 702Q527 563 589.50 460Q652 357 836 357L836 428Q1112 400 1133 501.50Q1154 603 1160 702Q1154 839 1093 942.50Q1032 1046 836 1046Q527 1046 527 702Z"  horiz-adv-x="1639" vert-adv-y="2048"  />

      
      <glyph glyph-name="uni72" unicode="&#x72;" d="M60 0L60 1444L1000 1444Q1174 1428 1286 1352Q1398 1276 1450 1148Q1490 956 1454 852Q1418 748 1328 678Q1238 608 1070 568L1178 430L1610 430L1610 0L1040 0L582 477L582 0L60 0M582 1084L582 818L946 818Q975 818 1009 839.50Q1043 861 1045 948Q1040 1031 1004.50 1057.50Q969 1084 945 1084L582 1084Z"  horiz-adv-x="1550" vert-adv-y="2048"  />

      
      <glyph glyph-name="uni73" unicode="&#x73;" d="M1196 1444L408 1444Q132 1444 80 1176Q28 908 376 588Q587 422 304 430L0 430L0 0L768 0Q1080 52 1086 320Q1092 588 768 872Q587 1022 844 1014L1196 1014L1196 1444Z"  horiz-adv-x="1135" vert-adv-y="2048"  />

      
      <glyph glyph-name="uni74" unicode="&#x74;" d="M1376 1444L1376 1014L918 1014L918 0L448 0L448 1014L-10 1014L-10 1444L1376 1444Z"  horiz-adv-x="1366" vert-adv-y="2048"  />

      
      <glyph glyph-name="uni75" unicode="&#x75;" d="M480 1444L480 590Q474 444 536 387Q598 330 730 326Q836 328 907 388Q978 448 974 590L974 1444L1444 1444L1444 597Q1441 417 1384.50 309.50Q1328 202 1241.50 130Q1155 58 1024.50 18Q894-22 734-26Q601-23 463.50 10.50Q326 44 223.50 116Q121 188 65.50 301Q10 414 10 596L10 1444L480 1444Z"  horiz-adv-x="1454" vert-adv-y="2048"  />

      
      <glyph glyph-name="uni76" unicode="&#x76;" d="M-80 1444L428 0L1195 0L1710 1444L1131 1444L799 335L471 1444L-80 1444Z"  horiz-adv-x="1630" vert-adv-y="2048"  />

      
      <glyph glyph-name="uni77" unicode="&#x77;" d="M922 612L770 0L300 0L-140 1444L330 1444L528 820L700 1444L1132 1444L1333 820L1467 1444L1937 1444L1575 0L1105 0L922 612Z"  horiz-adv-x="1800" vert-adv-y="2048"  />

      
      <glyph glyph-name="uni78" unicode="&#x78;" d="M1602 1444L1072 722L1602 0L1032 0L734 446L440 0L-130 0L400 722L-130 1444L440 1444L734 998L1032 1444L1602 1444Z"  horiz-adv-x="1472" vert-adv-y="2048"  />

      
      <glyph glyph-name="uni79" unicode="&#x79;" d="M1602 1444L972 530L972 0L500 0L500 530L-130 1444L440 1444L734 998L1032 1444L1602 1444Z"  horiz-adv-x="1472" vert-adv-y="2048"  />

      
      <glyph glyph-name="uni7a" unicode="&#x7a;" d="M40 1444L1360 1444L1360 1014L661 430L1360 430L1360 0L40 0L40 430L739 1014L40 1014L40 1444Z"  horiz-adv-x="1400" vert-adv-y="2048"  />

      
      <glyph glyph-name="uni7b" unicode="&#x7b;" d="M796 1733L803 1785Q758 1855 764 1875Q796 1875 796 1862L835 1772L867 1772L892 1798L924 1804L924 1836L886 1926L899 1958L931 1920Q931 1855 963 1810Q1027 1804 1066 1823L1085 1868Q1059 1952 1079 1965L1098 1952L1098 1830L1162 1823L1162 1810L1213 1810L1258 1913L1271 1907L1239 1798L1284 1785L1290 1772L1329 1772L1348 1810L1374 1810Q1374 1772 1348 1766Q1329 1727 1367 1708L1451 1669L1534 1746L1554 1746L1515 1682Q1470 1676 1470 1644L1509 1611Q1515 1573 1489 1566Q1380 1624 1400 1656L1348 1676Q1303 1733 1252 1766L1233 1759L1207 1772L1149 1772L1149 1785L1085 1772L912 1772L847 1753Q835 1721 796 1733M1378 1829L1390 1862L1404 1863L1440 1901L1458 1901L1462 1883L1432 1851L1415 1849L1397 1830L1378 1829M1274 1936L1274 1965L1293 1962L1298 1953L1274 1936M719 1708L732 1695L764 1682L770 1637L912 1464L931 1464Q924 1419 969 1425L1002 1464Q1008 1445 1091 1451L1111 1522L1098 1560L1143 1650L1181 1650L1245 1599L1245 1528L1194 1438L1194 1425L1233 1419L1278 1425L1297 1406L1329 1432L1400 1445L1457 1477L1592 1579L1579 1534L1534 1477L1509 1477Q1483 1438 1451 1425L1323 1400L1252 1355Q1226 1290 1310 969L1316 693L1310 636Q1329 623 1329 482L1323 437L1310 430L1290 430L1284 462L1290 571L1278 578L1278 687L1252 700Q1278 725 1278 751Q1278 886 1245 931L1143 918Q1014 931 963 918L803 437L783 417L764 417L751 469L790 520L822 584L828 681L847 713L867 790L899 828L924 924L912 931L899 1091Q924 1188 931 1342Q950 1355 944 1400L924 1419L886 1425Q783 1554 751 1560Q764 1579 719 1631L725 1676L713 1695L719 1708M1515 440L1517 474L1503 475L1503 488L1541 488L1541 476L1529 474L1528 440L1515 440M90 1746L494 1746L494 404L1605 404L1605 0L90 0L90 1746M199 1464L238 1464L239 1522L396 1524L397 1566L205 1566L199 1554L199 1464M231 1149L396 1151L395 1194L238 1194Q225 1226 244 1233L398 1233L398 1271L225 1271L212 1265L193 1220Q186 1175 231 1149M199 843L220 810L276 809L277 849L232 855L231 886L366 886L366 860L328 848L327 809L379 809L398 841Q413 924 340 937Q202 954 194 877L199 843M199 462L237 463Q300 487 392 501L392 559L238 597L199 597L199 558L237 550L239 515L200 503L199 462M270 544L271 520L340 530L270 544M224 145L282 141Q302 154 327 205Q360 218 366 205L366 186L342 180L340 141Q379 135 398 186Q402 228 372 250L315 251Q257 161 231 183L231 212L264 219L263 257L219 255L193 225L193 180L224 145M1548 439L1548 488L1560 488L1575 470L1592 488L1604 488L1604 439L1592 439L1592 455L1576 439L1560 455L1559 439L1548 439M655 71L713 71Q700 103 719 334L674 308L668 270L546 96L520 77L520 71L571 71Q584 193 668 167Q681 83 655 64L655 71M632 185L669 184L676 190L696 275L687 277L628 196L632 185M884 79L916 79L950 151L986 199L995 192L1008 188L1020 205L1021 224L991 226L977 204L947 167L945 175L956 206L957 226L928 226L905 204L908 194L924 208L932 203L922 169L884 79M1387 103L1400 77L1438 77L1470 122Q1483 128 1445 193L1451 212Q1483 218 1489 193L1496 199L1489 231L1445 225L1425 199L1425 154Q1457 116 1445 96Q1406 90 1393 109L1387 103M1156 109L1156 71L1194 77L1233 116L1233 128L1188 103L1226 205L1265 205L1265 225L1233 225L1245 263L1226 263L1213 225L1175 218L1175 205L1194 205L1168 122L1156 109Z"  horiz-adv-x="1675" vert-adv-y="2048"  />

      
      <glyph glyph-name="uni7c" unicode="&#x7c;" d="M-296 1014L-296 1444L354 1444L354 1014L-296 1014Z"  horiz-adv-x="56" vert-adv-y="2048"  />

      
      <glyph glyph-name="uni7d" unicode="&#x7d;" d="M1144 1990Q1383 1955 1575 1826L1750 1675Q1867 1540 1937 1377Q1958 1318 1978 1249Q2095 782 1785 362Q1482 36 1091 0Q910-6 805 18Q105 198 12 916Q6 1097 29 1202Q204 1873 875 1990Q1012 2010 1144 1990M58 1062L60 914L60 890L68 836L70 806L88 741L99 735L99 706L181 525L298 373L356 315L484 216Q700 88 939 64L1138 70Q1237 88 1383 134L1394 140L1447 163L1570 239L1733 385L1850 548Q1949 770 1960 928Q1978 1138 1896 1354L1797 1535Q1517 1920 1044 1943L887 1937L683 1890Q397 1791 214 1524Q76 1319 58 1062M1138 1855L1184 1850L1196 1838Q1179 1803 1179 1750L1208 1745L1231 1745L1249 1832L1301 1826L1307 1815L1249 1564L1190 1575Q1196 1645 1208 1645Q1225 1686 1173 1686L1155 1680L1138 1593L1079 1599Q1097 1739 1138 1855M1465 1710Q1564 1727 1593 1651Q1605 1593 1546 1517Q1488 1453 1447 1453Q1359 1459 1348 1535Q1359 1657 1465 1710M1721 1500L1768 1447L1780 1412Q1797 1330 1669 1324L1634 1249L1564 1254L1570 1284L1628 1359L1628 1365L1546 1313L1511 1342Q1505 1371 1523 1377L1721 1500M1651 1173L1675 1173L1675 1155L1692 1138L1710 1138L1745 1196Q1844 1243 1890 1144Q1890 1114 1844 1109L1803 1144L1762 1085Q1657 1044 1605 1144L1651 1173M1640 969L1698 969L1896 939L1890 840L1838 846L1832 840L1826 887L1791 899L1785 864L1739 858L1721 864L1721 904L1686 904L1680 858L1616 869L1628 963L1640 969M1710 753Q1774 735 1762 712Q1774 689 1733 648Q1680 630 1657 683Q1657 753 1710 753M1488 607L1523 601Q1523 583 1546 583L1529 531L1605 525L1640 502L1663 426L1640 362Q1622 356 1581 397L1599 443L1570 455Q1482 443 1465 531L1488 607M1330 473Q1359 490 1389 432L1354 385Q1342 338 1406 309L1465 315L1488 286L1482 245Q1330 228 1278 350L1278 414Q1301 455 1330 473M1138 397L1173 397L1225 163L1225 140L1179 128Q1155 146 1114 350Q1103 397 1138 397M893 403Q934 338 928 298L951 280L998 379Q1021 385 1021 362Q1056 216 1044 210L1056 187L1056 134L1021 117L998 123L980 228L928 140L881 228L852 128L799 158L834 268L846 280Q840 303 881 373L881 397L893 403M671 461Q700 467 753 443L776 414L776 333Q735 222 648 198Q560 210 548 268Q548 414 671 461M461 595Q537 618 589 548L548 496L525 496Q513 519 473 519Q443 496 432 467Q438 403 449 403L403 362Q368 356 362 449Q397 583 461 595M286 776L333 776L356 753Q356 677 327 677Q263 665 251 724Q257 764 286 776M181 1079Q263 1097 344 1039L385 945L379 922L198 904L123 904L117 916Q99 1056 181 1079M239 1324L426 1319L438 1313Q432 1289 449 1284L449 1254L391 1254L373 1202L403 1149L368 1132Q338 1126 333 1144L163 1307L239 1324M379 1605L438 1587L478 1523L566 1511L578 1482L578 1441L461 1459L461 1447L531 1406L508 1359L467 1371L391 1435Q356 1447 292 1511Q333 1593 379 1605M554 1762L589 1756L613 1710L630 1698L624 1803L689 1780L694 1686Q770 1663 782 1634L776 1570L689 1616L677 1616L683 1593L694 1593L718 1540L677 1511L613 1587L531 1721L531 1745L554 1762M928 1791Q969 1791 986 1762Q1004 1710 945 1686Q887 1692 881 1721Q858 1756 928 1791M998 1564L1044 1552L1091 1505L1114 1459L1109 1435Q1155 1447 1161 1365L1173 1365L1301 1190L1354 1085Q1365 1062 1301 1021L1284 1021Q1249 1062 1225 1056L1254 992Q1231 963 1202 957L1155 998Q1155 1097 1103 1126L1056 1149L1021 1155L998 1120L998 1021L1056 951L1149 904L1161 893L1173 811Q1149 665 1120 659L817 659Q729 782 706 1021L706 1144L741 1272L776 1336L846 1412Q910 1465 1004 1494L998 1564M747 1068L764 928L776 928L799 840L846 747L998 741L1068 747L963 759L881 753Q846 747 782 928Q759 992 759 1062L764 1184L753 1167L747 1097Q759 1085 747 1068M834 560L1112 559L1138 537L1149 490L1161 478L1154 475L789 475Q823 566 834 560M1418 1570L1418 1529L1430 1523L1476 1535L1523 1599L1523 1640L1511 1645Q1470 1657 1418 1570M1651 1383L1651 1377L1686 1377L1715 1400L1715 1418L1651 1383M613 309L613 280Q630 280 624 263Q677 263 712 350Q718 385 694 403Q677 408 636 362L613 309M181 992L181 969L298 974Q309 992 245 1021Q204 1021 181 992M298 1260L298 1249L315 1237L327 1249L321 1266L298 1260M373 1529L426 1482L432 1482L420 1523L403 1535L373 1529M1129 1308L1138 1287L1152 1281L1165 1299L1150 1308L1129 1308M938 1261L939 1237L968 1212L1015 1182L1025 1172L1044 1172L1041 1186L1017 1194L976 1223L953 1248L938 1265L937 1257L937 1246L939 1250L937 1254L938 1261M1067 1194L1066 1185L1081 1180L1081 1191L1067 1194M1316 1106L1288 1107L1289 1082L1316 1106M847 1345L816 1312L796 1281L781 1251L770 1222L762 1194L769 1188L789 1239L811 1284L828 1313L847 1345M807 597L821 571L1126 572L1141 594L1129 598L1111 600L826 600L807 597M804 624L817 614L1132 616L1138 621L1132 637L1114 647L823 646L812 635L804 624Z"  horiz-adv-x="2043" vert-adv-y="2048"  />

      
      <glyph glyph-name="uni7e" unicode="&#x7e;" d="M1708 1444L1708 1014L1308 1014L972 530L972 0L500 0L500 530L-130 1444L440 1444L734 998L1032 1444L1708 1444Z"  horiz-adv-x="1472" vert-adv-y="2048"  />

      
      <glyph glyph-name="unib6" unicode="&#xb6;" d="M499 2515L878 2554L898 2490L731 2371L625 2361L555 1623Q635 1831 746.50 1908Q858 1985 1007 2005Q1156 2025 1310 2007.50Q1464 1990 1544.50 1938Q1625 1886 1680.50 1772Q1736 1658 1752 1539L1772 1499L1777 1316L1858 667L1575 519L1580 494L1610 469Q1926 548 1944 459L2066 440Q2135 360 2065 326L620 286L135 227Q60 281 317 400L630 425L585 474L565 524L605 583L610 608L469 672L529 1316L529 1480Q489 1490 469 1549L555 2356L489 2386L464 2470L499 2515M1302 1482L1302 1309L1312 1289L1307 462L1388 457L1393 1348L1408 1348L1408 1472L1302 1482M918 1492L883 1393L979 1373L999 1487L918 1492M764 1400L779 1490L749 1492L729 1400L764 1400M610 1423L620 1423L628 1460L557 1465L557 1428L610 1423M1557 1462L1537 1356L1577 1358L1613 1455L1557 1462M1618 1361L1691 1358L1724 1403L1731 1447L1651 1462L1618 1361M544 1395L879 1361L1092 1319L1077 591L1056 782Q1034 992 1009 1071Q984 1150 928.50 1209.50Q873 1269 817.50 1297.50Q762 1326 701 1330Q640 1334 557 1338L544 1395M1432 1315L1724 1356L1734 1284Q1668 1264 1633 1249Q1598 1234 1572.50 1194.50Q1547 1155 1514 1073.50Q1481 992 1451 749L1428 536L1432 1315M524 1415L537 1319Q600 1321 669.50 1317.50Q739 1314 798.50 1283Q858 1252 912 1195Q966 1138 989 1067Q1012 996 1067 539L1090 526L1108 1336L878 1376L524 1415M1416 1334L1413 464L1436 467Q1489 965 1530.50 1066.50Q1572 1168 1600 1200Q1628 1232 1674.50 1249.50Q1721 1267 1747 1267L1747 1371L1416 1334M1067 459Q1030 592 1010.50 667Q991 742 965.50 830Q940 918 896 1005Q852 1092 759 1123Q661 1116 624 1070Q587 1024 554.50 943.50Q522 863 486 682L1067 459M1767 648Q1728 928 1695 1021Q1662 1114 1624 1100Q1562 1061 1540.50 1014Q1519 967 1510.50 921Q1502 875 1481 732L1466 568L1456 472L1767 635L1767 648M555 1514L544 1499L560 1475L681 1492L812 1504L991 1507L1289 1495L1484 1475L1688 1472L1754 1445L1749 1512Q1666 1544 1572 1558Q1478 1572 1339 1581Q1200 1590 1063 1587Q926 1584 812 1579Q698 1574 555 1514M582 1519Q722 1556 896 1561Q1070 1566 1158.50 1566Q1247 1566 1364 1561Q1481 1556 1573.50 1541.50Q1666 1527 1744 1497L1749 1460L1666 1480L1396 1499L1199 1509L959 1514L787 1512L645 1499L560 1485L555 1497L582 1519M954 1933Q1105 1916 1187 1912Q1269 1908 1352.50 1903Q1436 1898 1452.50 1907Q1469 1916 1460 1933Q1451 1950 1417 1965Q1383 1980 1308.50 1987.50Q1234 1995 1173.50 1995Q1113 1995 1063.50 1987.50Q1014 1980 954 1933M1443 1883Q1459 1814 1495.50 1795.50Q1532 1777 1556 1772Q1580 1767 1596.50 1785.50Q1613 1804 1599 1829Q1585 1854 1558.50 1872.50Q1532 1891 1510.50 1893.50Q1489 1896 1443 1883M1493 1888Q1528 1887 1554 1868.50Q1580 1850 1592.50 1827Q1605 1804 1596 1796.50Q1587 1789 1574 1793Q1561 1797 1541 1802Q1521 1807 1500 1826.50Q1479 1846 1472.50 1863Q1466 1880 1493 1888M577 2364L524 1777L595 2364L577 2364M340 338Q193 308 151.50 287Q110 266 127.50 252.50Q145 239 179.50 244Q214 249 250.50 271Q287 293 340 338M2077 370Q2057 420 2016.50 417.50Q1976 415 1942 395Q1908 375 1846 366.50Q1784 358 1739 346.50Q1694 335 1817.50 344Q1941 353 2077 370M353 145Q381 5 297-23L353-51Q409 173 522 201Q802 201 830 89Q886-136 690-220L522-220L381-79Q353-248-12-220L-40 61L-124 61L-124 201Q353 229 353 145M101 33L213 33L213 89L101 89L101 33M101-136L241-108L213-51L101-51L101-136M578-136L690-108L662 89L522 61Q493-79 578-136M858 201Q1223 229 1251 145Q1279 5 1195-23Q1279 5 1279-108L1391 201L1588 201L1700-136L1700-220L1419-136L1363-220L1223-164Q1111-248 858-220L858 201M998 33L1111 33L1111 89L998 89L998 33M998-136L1139-108L1111-51L998-51L998-136M1447-51L1532-51L1503 89L1447 33L1447-51M224-287L617-287L617-427L421-455L561-455L561-539L449-539L393-708L280-680L224-427L224-287M1094-399Q1150-624 954-708Q673-708 645-567Q589-427 785-287Q1066-287 1094-399M841-624L954-596L926-399L785-427Q757-567 841-624M1126-283Q1238-227 1350-395Q1350-283 1407-283L1855-283L1855-423L1743-423L1743-563L1996-563Q1799-367 1940-283L2220-283L2220-395L2080-451Q2248-620 2080-704L1631-704L1603-451L1491-423L1463-704L1378-704L1238-563L1238-704L1126-704L1126-283Z"  horiz-adv-x="2048" vert-adv-y="2048"  />

      
      <glyph glyph-name="unibf" unicode="&#xbf;" d="M465 933L875 933Q867 790 828 714.50Q789 639 738.50 601.50Q688 564 644.50 530Q601 496 601 444Q601 392 653 376Q705 360 803 360Q872 360 953.50 380.50Q1035 401 1092 428L1092 75Q974 38 870.50 19Q767 0 646 0Q524 0 396 28.50Q268 57 176 135Q84 213 84 348Q84 452 132.50 520.50Q181 589 279.50 669Q378 749 421.50 801Q465 853 465 933M893 1083L447 1083L447 1468L893 1468L893 1083Z"  horiz-adv-x="1176" vert-adv-y="2048"  />

      
      <glyph glyph-name="unic0" unicode="&#xc0;" d="M-80 0L395 1444L1112 1444L1595 0L1049 0L958 260L529 260L438 0L-80 0M755 1124L548 552L946 552L755 1124M203 1796L665 1796L841 1478L203 1796Z"  horiz-adv-x="1515" vert-adv-y="2048"  />

      
      <glyph glyph-name="unic1" unicode="&#xc1;" d="M1311 1796L849 1796L673 1478L1311 1796M-80 0L395 1444L1112 1444L1595 0L1049 0L958 260L529 260L438 0L-80 0M755 1124L548 552L946 552L755 1124Z"  horiz-adv-x="1515" vert-adv-y="2048"  />

      
      <glyph glyph-name="unic2" unicode="&#xc2;" d="M1030 1534L751 1817L473 1534L473 1475L753 1646L1030 1472L1030 1534M-80 0L395 1444L1112 1444L1595 0L1049 0L958 260L529 260L438 0L-80 0M755 1124L548 552L946 552L755 1124Z"  horiz-adv-x="1515" vert-adv-y="2048"  />

      
      <glyph glyph-name="unic3" unicode="&#xc3;" d="M-80 0L395 1444L1112 1444L1595 0L1049 0L958 260L529 260L438 0L-80 0M755 1124L548 552L946 552L755 1124M1052 1676Q904 1536 729 1727Q554 1918 407 1648L467 1601Q552 1768 720 1586Q888 1404 1128 1636L1052 1676Z"  horiz-adv-x="1515" vert-adv-y="2048"  />

      
      <glyph glyph-name="unic4" unicode="&#xc4;" d="M-80 0L395 1444L1112 1444L1595 0L1049 0L958 260L529 260L438 0L-80 0M755 1124L548 552L946 552L755 1124M563 1764Q614 1764 646.50 1730.50Q679 1697 679 1647Q674 1586 640.50 1555Q607 1524 557 1524Q509 1524 476 1557Q443 1590 443 1640Q443 1696 476 1730Q509 1764 563 1764M941 1764Q992 1764 1024.50 1730.50Q1057 1697 1057 1647Q1052 1586 1018.50 1555Q985 1524 935 1524Q887 1524 854 1557Q821 1590 821 1640Q821 1696 854 1730Q887 1764 941 1764Z"  horiz-adv-x="1515" vert-adv-y="2048"  />

      
      <glyph glyph-name="unic5" unicode="&#xc5;" d="M-80 0L395 1444L1112 1444L1595 0L1049 0L958 260L529 260L438 0L-80 0M755 1124L548 552L946 552L755 1124M754 1844Q837 1844 891.50 1789Q946 1734 946 1653Q946 1571 886.50 1512.50Q827 1454 745 1454Q666 1454 611.50 1507Q557 1560 557 1642Q557 1733 612 1788.50Q667 1844 754 1844M753 1768Q699 1768 666 1734Q633 1700 633 1644Q633 1594 666 1561Q699 1528 747 1528Q797 1528 830.50 1559Q864 1590 869 1651Q869 1701 836.50 1734.50Q804 1768 753 1768Z"  horiz-adv-x="1515" vert-adv-y="2048"  />

      
      <glyph glyph-name="unic6" unicode="&#xc6;" d="M756 1122L548 552L756 552L756 1122M756 0L756 260L529 260L438 0L-80 0L395 1444L2000 1444L2000 1014L1232 1014L1232 848L1728 848L1728 596L1232 596L1232 430L2122 430L2122 0L756 0Z"  horiz-adv-x="2062" vert-adv-y="2048"  />

      
      <glyph glyph-name="unic7" unicode="&#xc7;" d="M692 4Q592 12 477 65.50Q362 119 249.50 207.50Q137 296 73.50 429.50Q10 563 10 739Q10 913 73.50 1046.50Q137 1180 249.50 1268.50Q362 1357 477 1410.50Q592 1464 816 1476Q1048 1464 1170 1420Q1292 1376 1416 1260L1132 944Q1060 1004 1004 1030Q948 1056 820 1064Q696 1048 635 1013Q574 978 530 918Q486 858 478 738Q486 618 530 558Q574 498 635 463Q696 428 820 412Q948 420 1004 446Q1060 472 1132 532L1416 216Q1292 100 1170 56Q1048 12 898 1L898-112Q1005-132 1057-180Q1109-228 1109-296Q1109-388 1007.50-456.50Q906-525 746-525Q683-525 587-517L602-430Q644-442 702-444Q802-444 837.50-413Q873-382 873-328Q873-290 834-262Q795-234 737-234Q720-234 693-237L692 4Z"  horiz-adv-x="1440" vert-adv-y="2048"  />

      
      <glyph glyph-name="unic8" unicode="&#xc8;" d="M60 0L60 1444L1298 1444L1298 1014L530 1014L530 848L1026 848L1026 596L530 596L530 430L1420 430L1420 0L60 0M203 1796L665 1796L841 1478L203 1796Z"  horiz-adv-x="1360" vert-adv-y="2048"  />

      
      <glyph glyph-name="unic9" unicode="&#xc9;" d="M60 0L60 1444L1298 1444L1298 1014L530 1014L530 848L1026 848L1026 596L530 596L530 430L1420 430L1420 0L60 0M1311 1796L849 1796L673 1478L1311 1796Z"  horiz-adv-x="1360" vert-adv-y="2048"  />

      
      <glyph glyph-name="unica" unicode="&#xca;" d="M60 0L60 1444L1298 1444L1298 1014L530 1014L530 848L1026 848L1026 596L530 596L530 430L1420 430L1420 0L60 0M1030 1534L751 1817L473 1534L473 1475L753 1646L1030 1472L1030 1534Z"  horiz-adv-x="1360" vert-adv-y="2048"  />

      
      <glyph glyph-name="unicb" unicode="&#xcb;" d="M60 0L60 1444L1298 1444L1298 1014L530 1014L530 848L1026 848L1026 596L530 596L530 430L1420 430L1420 0L60 0M563 1764Q614 1764 646.50 1730.50Q679 1697 679 1647Q674 1586 640.50 1555Q607 1524 557 1524Q509 1524 476 1557Q443 1590 443 1640Q443 1696 476 1730Q509 1764 563 1764M941 1764Q992 1764 1024.50 1730.50Q1057 1697 1057 1647Q1052 1586 1018.50 1555Q985 1524 935 1524Q887 1524 854 1557Q821 1590 821 1640Q821 1696 854 1730Q887 1764 941 1764Z"  horiz-adv-x="1360" vert-adv-y="2048"  />

      
      <glyph glyph-name="unicc" unicode="&#xcc;" d="M40 1444L510 1444L510 0L40 0L40 1444M26 1796L397 1796L510 1480L26 1796Z"  horiz-adv-x="550" vert-adv-y="2048"  />

      
      <glyph glyph-name="unicd" unicode="&#xcd;" d="M508 1444L41 1444L41 0L508 0L508 1444M522 1796L154 1796L41 1480L522 1796Z"  horiz-adv-x="550" vert-adv-y="2048"  />

      
      <glyph glyph-name="unice" unicode="&#xce;" d="M40 1444L510 1444L510 0L40 0L40 1444M502 1540L273 1823L45 1540L45 1481L274 1652L502 1478L502 1540Z"  horiz-adv-x="550" vert-adv-y="2048"  />

      
      <glyph glyph-name="unicf" unicode="&#xcf;" d="M40 1444L510 1444L510 0L40 0L40 1444M123 1764Q174 1764 206.50 1730.50Q239 1697 239 1647Q234 1586 200.50 1555Q167 1524 117 1524Q69 1524 36 1557Q3 1590 3 1640Q3 1696 36 1730Q69 1764 123 1764M435 1764Q486 1764 518.50 1730.50Q551 1697 551 1647Q546 1586 512.50 1555Q479 1524 429 1524Q381 1524 348 1557Q315 1590 315 1640Q315 1696 348 1730Q381 1764 435 1764Z"  horiz-adv-x="550" vert-adv-y="2048"  />

      
      <glyph glyph-name="unid0" unicode="&#xd0;" d="M212 0L212 542L-42 542L-42 794L212 794L212 1444L1064 1444Q1237 1444 1369 1398Q1501 1352 1592 1274Q1683 1196 1743.50 1063Q1804 930 1804 717Q1793 520 1738 382Q1683 244 1592 164Q1501 84 1369.50 40Q1238-4 1040 0L212 0M694 1086L694 796L974 796L974 542L694 542L694 360L969 360Q1062 360 1119 399.50Q1176 439 1212 500.50Q1248 562 1258 722Q1255 868 1217.50 937.50Q1180 1007 1121 1046.50Q1062 1086 967 1086L694 1086Z"  horiz-adv-x="1804" vert-adv-y="2048"  />

      
      <glyph glyph-name="unid1" unicode="&#xd1;" d="M60 0L60 1444L530 1444L960 904L960 1444L1430 1444L1430 0L960 0L530 540L530 0L60 0M1036 1676Q888 1536 713 1727Q538 1918 391 1648L451 1601Q536 1768 704 1586Q872 1404 1112 1636L1036 1676Z"  horiz-adv-x="1430" vert-adv-y="2048"  />

      
      <glyph glyph-name="unid2" unicode="&#xd2;" d="M1668 714Q1668 477 1569 310Q1470 143 1282.50 59Q1095-25 835-25Q575-25 388.50 59.50Q202 144 106 309.50Q10 475 10 714Q10 895 65 1032.50Q120 1170 226 1264Q332 1358 486 1406.50Q640 1455 835 1455Q1094 1455 1282 1369.50Q1470 1284 1569 1117.50Q1668 951 1668 714M203 1796L665 1796L841 1478L203 1796M523 710Q523 571 585.50 468Q648 365 832 365Q974 365 1044.50 419Q1115 473 1132.50 542.50Q1150 612 1156 710Q1150 849 1089 952.50Q1028 1056 832 1056Q523 1056 523 710Z"  horiz-adv-x="1677" vert-adv-y="2048"  />

      
      <glyph glyph-name="unid3" unicode="&#xd3;" d="M1668 714Q1668 477 1569 310Q1470 143 1282.50 59Q1095-25 835-25Q575-25 388.50 59.50Q202 144 106 309.50Q10 475 10 714Q10 895 65 1032.50Q120 1170 226 1264Q332 1358 486 1406.50Q640 1455 835 1455Q1094 1455 1282 1369.50Q1470 1284 1569 1117.50Q1668 951 1668 714M1311 1796L849 1796L673 1478L1311 1796M523 710Q523 571 585.50 468Q648 365 832 365Q974 365 1044.50 419Q1115 473 1132.50 542.50Q1150 612 1156 710Q1150 849 1089 952.50Q1028 1056 832 1056Q523 1056 523 710Z"  horiz-adv-x="1677" vert-adv-y="2048"  />

      
      <glyph glyph-name="unid4" unicode="&#xd4;" d="M1668 714Q1668 477 1569 310Q1470 143 1282.50 59Q1095-25 835-25Q575-25 388.50 59.50Q202 144 106 309.50Q10 475 10 714Q10 895 65 1032.50Q120 1170 226 1264Q332 1358 486 1406.50Q640 1455 835 1455Q1094 1455 1282 1369.50Q1470 1284 1569 1117.50Q1668 951 1668 714M1114 1538L824 1838L537 1538L537 1476L827 1657L1114 1472L1114 1538M523 710Q523 571 585.50 468Q648 365 832 365Q974 365 1044.50 419Q1115 473 1132.50 542.50Q1150 612 1156 710Q1150 849 1089 952.50Q1028 1056 832 1056Q523 1056 523 710Z"  horiz-adv-x="1677" vert-adv-y="2048"  />

      
      <glyph glyph-name="unid5" unicode="&#xd5;" d="M1668 714Q1668 477 1569 310Q1470 143 1282.50 59Q1095-25 835-25Q575-25 388.50 59.50Q202 144 106 309.50Q10 475 10 714Q10 895 65 1032.50Q120 1170 226 1264Q332 1358 486 1406.50Q640 1455 835 1455Q1094 1455 1282 1369.50Q1470 1284 1569 1117.50Q1668 951 1668 714M1124 1680Q976 1540 801 1731Q626 1922 479 1652L539 1605Q624 1772 792 1590Q960 1408 1200 1640L1124 1680M523 710Q523 571 585.50 468Q648 365 832 365Q974 365 1044.50 419Q1115 473 1132.50 542.50Q1150 612 1156 710Q1150 849 1089 952.50Q1028 1056 832 1056Q523 1056 523 710Z"  horiz-adv-x="1677" vert-adv-y="2048"  />

      
      <glyph glyph-name="unid6" unicode="&#xd6;" d="M1668 714Q1668 477 1569 310Q1470 143 1282.50 59Q1095-25 835-25Q575-25 388.50 59.50Q202 144 106 309.50Q10 475 10 714Q10 895 65 1032.50Q120 1170 226 1264Q332 1358 486 1406.50Q640 1455 835 1455Q1094 1455 1282 1369.50Q1470 1284 1569 1117.50Q1668 951 1668 714M1123 1764Q1174 1764 1206.50 1730.50Q1239 1697 1239 1647Q1234 1586 1200.50 1555Q1167 1524 1117 1524Q1069 1524 1036 1557Q1003 1590 1003 1640Q1003 1696 1036 1730Q1069 1764 1123 1764M563 1764Q614 1764 646.50 1730.50Q679 1697 679 1647Q674 1586 640.50 1555Q607 1524 557 1524Q509 1524 476 1557Q443 1590 443 1640Q443 1696 476 1730Q509 1764 563 1764M523 710Q523 571 585.50 468Q648 365 832 365Q974 365 1044.50 419Q1115 473 1132.50 542.50Q1150 612 1156 710Q1150 849 1089 952.50Q1028 1056 832 1056Q523 1056 523 710Z"  horiz-adv-x="1677" vert-adv-y="2048"  />

      
      <glyph glyph-name="unid8" unicode="&#xd8;" d="M640 420Q644 372 828 368Q976 368 1066 444Q1156 520 1160 689L1160 812L640 420M1446 1274L1556 1362L1668 1212L1580 1134Q1668 951 1668 714Q1668 477 1569 310Q1470 143 1282.50 59Q1095-25 835-25Q575-25 280 124L112-8L2 140L136 248Q10 475 10 714Q10 895 65 1032.50Q120 1170 226 1264Q332 1358 486 1406.50Q640 1455 835 1455Q1094 1455 1245 1383.50Q1396 1312 1446 1274M1056 972Q1056 1048 836 1056Q516 1056 530 707Q524 640 536 572L1056 972Z"  horiz-adv-x="1677" vert-adv-y="2048"  />

      
      <glyph glyph-name="unid9" unicode="&#xd9;" d="M480 1444L480 590Q474 444 536 387Q598 330 730 326Q836 328 907 388Q978 448 974 590L974 1444L1444 1444L1444 597Q1441 417 1384.50 309.50Q1328 202 1241.50 130Q1155 58 1024.50 18Q894-22 734-26Q601-23 463.50 10.50Q326 44 223.50 116Q121 188 65.50 301Q10 414 10 596L10 1444L480 1444M203 1796L665 1796L841 1478L203 1796Z"  horiz-adv-x="1454" vert-adv-y="2048"  />

      
      <glyph glyph-name="unida" unicode="&#xda;" d="M480 1444L480 590Q474 444 536 387Q598 330 730 326Q836 328 907 388Q978 448 974 590L974 1444L1444 1444L1444 597Q1441 417 1384.50 309.50Q1328 202 1241.50 130Q1155 58 1024.50 18Q894-22 734-26Q601-23 463.50 10.50Q326 44 223.50 116Q121 188 65.50 301Q10 414 10 596L10 1444L480 1444M1311 1796L849 1796L673 1478L1311 1796Z"  horiz-adv-x="1454" vert-adv-y="2048"  />

      
      <glyph glyph-name="unidb" unicode="&#xdb;" d="M480 1444L480 590Q474 444 536 387Q598 330 730 326Q836 328 907 388Q978 448 974 590L974 1444L1444 1444L1444 597Q1441 417 1384.50 309.50Q1328 202 1241.50 130Q1155 58 1024.50 18Q894-22 734-26Q601-23 463.50 10.50Q326 44 223.50 116Q121 188 65.50 301Q10 414 10 596L10 1444L480 1444M1030 1538L740 1838L453 1538L453 1476L743 1657L1030 1472L1030 1538Z"  horiz-adv-x="1454" vert-adv-y="2048"  />

      
      <glyph glyph-name="unidc" unicode="&#xdc;" d="M480 1444L480 590Q474 444 536 387Q598 330 730 326Q836 328 907 388Q978 448 974 590L974 1444L1444 1444L1444 597Q1441 417 1384.50 309.50Q1328 202 1241.50 130Q1155 58 1024.50 18Q894-22 734-26Q601-23 463.50 10.50Q326 44 223.50 116Q121 188 65.50 301Q10 414 10 596L10 1444L480 1444M947 1768Q998 1768 1030.50 1734.50Q1063 1701 1063 1651Q1058 1590 1024.50 1559Q991 1528 941 1528Q893 1528 860 1561Q827 1594 827 1644Q827 1700 860 1734Q893 1768 947 1768M499 1764Q550 1764 582.50 1730.50Q615 1697 615 1647Q610 1586 576.50 1555Q543 1524 493 1524Q445 1524 412 1557Q379 1590 379 1640Q379 1696 412 1730Q445 1764 499 1764Z"  horiz-adv-x="1454" vert-adv-y="2048"  />

      
      <glyph glyph-name="unidd" unicode="&#xdd;" d="M1602 1444L972 530L972 0L500 0L500 530L-130 1444L440 1444L734 998L1032 1444L1602 1444M1259 1796L797 1796L621 1478L1259 1796Z"  horiz-adv-x="1472" vert-adv-y="2048"  />

      
      <glyph glyph-name="unide" unicode="&#xde;" d="M510 272L510 0L40 0L40 1444L510 1444L510 1191Q910 1192 1017.50 1163Q1125 1134 1199 1084Q1273 1034 1322 949.50Q1371 865 1371 729Q1363 603 1318 515Q1273 427 1199 376Q1125 325 1018 297Q911 269 750 271L510 272M510 908L510 530L732 529Q807 529 853.50 549.50Q900 570 929.50 602.50Q959 635 967 719Q965 795 934.50 831.50Q904 868 855.50 888Q807 908 730 908L510 908Z"  horiz-adv-x="1378" vert-adv-y="2048"  />

      
      <glyph glyph-name="unidf" unicode="&#xdf;" d="M558 559L558-296L60-296L60 1444L1045 1444Q1282 1442 1405.50 1362Q1529 1282 1555 1094Q1564 950 1494 868Q1424 786 1263 733L1263 729Q1342 719 1409 686.50Q1476 654 1521.50 609.50Q1567 565 1592 509Q1617 453 1617 399Q1617 228 1529.50 140Q1442 52 1304.50 25Q1167-2 971 0L684 0L684 292L879 292Q962 289 1024 328Q1086 367 1086 424Q1092 487 1035.50 523Q979 559 879 559L644 560L644 876L908 875Q937 875 969 905.50Q1001 936 1003 987Q999 1046 964.50 1070Q930 1094 907 1094L558 1094L558 559Z"  horiz-adv-x="1628" vert-adv-y="2048"  />

      
      <glyph glyph-name="unie0" unicode="&#xe0;" d="M-80 0L395 1444L1112 1444L1595 0L1049 0L958 260L529 260L438 0L-80 0M755 1124L548 552L946 552L755 1124M203 1796L665 1796L841 1478L203 1796Z"  horiz-adv-x="1515" vert-adv-y="2048"  />

      
      <glyph glyph-name="unie1" unicode="&#xe1;" d="M1311 1796L849 1796L673 1478L1311 1796M-80 0L395 1444L1112 1444L1595 0L1049 0L958 260L529 260L438 0L-80 0M755 1124L548 552L946 552L755 1124Z"  horiz-adv-x="1515" vert-adv-y="2048"  />

      
      <glyph glyph-name="unie2" unicode="&#xe2;" d="M-80 0L395 1444L1112 1444L1595 0L1049 0L958 260L529 260L438 0L-80 0M755 1124L548 552L946 552L755 1124M1030 1534L751 1817L473 1534L473 1475L753 1646L1030 1472L1030 1534Z"  horiz-adv-x="1515" vert-adv-y="2048"  />

      
      <glyph glyph-name="unie3" unicode="&#xe3;" d="M-80 0L395 1444L1112 1444L1595 0L1049 0L958 260L529 260L438 0L-80 0M755 1124L548 552L946 552L755 1124M1052 1676Q904 1536 729 1727Q554 1918 407 1648L467 1601Q552 1768 720 1586Q888 1404 1128 1636L1052 1676Z"  horiz-adv-x="1515" vert-adv-y="2048"  />

      
      <glyph glyph-name="unie4" unicode="&#xe4;" d="M-80 0L395 1444L1112 1444L1595 0L1049 0L958 260L529 260L438 0L-80 0M755 1124L548 552L946 552L755 1124M563 1764Q614 1764 646.50 1730.50Q679 1697 679 1647Q674 1586 640.50 1555Q607 1524 557 1524Q509 1524 476 1557Q443 1590 443 1640Q443 1696 476 1730Q509 1764 563 1764M941 1764Q992 1764 1024.50 1730.50Q1057 1697 1057 1647Q1052 1586 1018.50 1555Q985 1524 935 1524Q887 1524 854 1557Q821 1590 821 1640Q821 1696 854 1730Q887 1764 941 1764Z"  horiz-adv-x="1515" vert-adv-y="2048"  />

      
      <glyph glyph-name="unie5" unicode="&#xe5;" d="M-80 0L395 1444L1112 1444L1595 0L1049 0L958 260L529 260L438 0L-80 0M755 1124L548 552L946 552L755 1124M754 1844Q837 1844 891.50 1789Q946 1734 946 1653Q946 1571 886.50 1512.50Q827 1454 745 1454Q666 1454 611.50 1507Q557 1560 557 1642Q557 1733 612 1788.50Q667 1844 754 1844M753 1768Q699 1768 666 1734Q633 1700 633 1644Q633 1594 666 1561Q699 1528 747 1528Q797 1528 830.50 1559Q864 1590 869 1651Q869 1701 836.50 1734.50Q804 1768 753 1768Z"  horiz-adv-x="1515" vert-adv-y="2048"  />

      
      <glyph glyph-name="unie6" unicode="&#xe6;" d="M756 1122L548 552L756 552L756 1122M756 0L756 260L529 260L438 0L-80 0L395 1444L2000 1444L2000 1014L1232 1014L1232 848L1728 848L1728 596L1232 596L1232 430L2122 430L2122 0L756 0Z"  horiz-adv-x="2062" vert-adv-y="2048"  />

      
      <glyph glyph-name="unie7" unicode="&#xe7;" d="M752 4Q609 0 419 83.50Q229 167 119.50 334Q10 501 10 743Q10 913 75.50 1046.50Q141 1180 257 1268.50Q373 1357 523.50 1400.50Q674 1444 844 1444L1240 1444L1484 1444L1484 1014L1032 1014Q880 1014 807 1005Q734 996 677 975Q620 954 576 902Q532 850 525 718Q530 590 576 535Q622 480 688 462Q754 444 824 437Q894 430 1032 430L1484 430L1484 0L958 0L958-112Q1065-132 1117-180Q1169-228 1169-296Q1169-388 1067.50-456.50Q966-525 806-525Q743-525 647-517L662-430Q704-442 762-444Q862-444 897.50-413Q933-382 933-328Q933-290 894-262Q855-234 797-234Q780-234 753-237L752 4Z"  horiz-adv-x="1484" vert-adv-y="2048"  />

      
      <glyph glyph-name="unie8" unicode="&#xe8;" d="M60 0L60 1444L1298 1444L1298 1014L530 1014L530 848L1026 848L1026 596L530 596L530 430L1420 430L1420 0L60 0M203 1796L665 1796L841 1478L203 1796Z"  horiz-adv-x="1360" vert-adv-y="2048"  />

      
      <glyph glyph-name="unie9" unicode="&#xe9;" d="M60 0L60 1444L1298 1444L1298 1014L530 1014L530 848L1026 848L1026 596L530 596L530 430L1420 430L1420 0L60 0M1311 1796L849 1796L673 1478L1311 1796Z"  horiz-adv-x="1360" vert-adv-y="2048"  />

      
      <glyph glyph-name="uniea" unicode="&#xea;" d="M60 0L60 1444L1298 1444L1298 1014L530 1014L530 848L1026 848L1026 596L530 596L530 430L1420 430L1420 0L60 0M1030 1534L751 1817L473 1534L473 1475L753 1646L1030 1472L1030 1534Z"  horiz-adv-x="1360" vert-adv-y="2048"  />

      
      <glyph glyph-name="unieb" unicode="&#xeb;" d="M60 0L60 1444L1298 1444L1298 1014L530 1014L530 848L1026 848L1026 596L530 596L530 430L1420 430L1420 0L60 0M563 1764Q614 1764 646.50 1730.50Q679 1697 679 1647Q674 1586 640.50 1555Q607 1524 557 1524Q509 1524 476 1557Q443 1590 443 1640Q443 1696 476 1730Q509 1764 563 1764M941 1764Q992 1764 1024.50 1730.50Q1057 1697 1057 1647Q1052 1586 1018.50 1555Q985 1524 935 1524Q887 1524 854 1557Q821 1590 821 1640Q821 1696 854 1730Q887 1764 941 1764Z"  horiz-adv-x="1360" vert-adv-y="2048"  />

      
      <glyph glyph-name="uniec" unicode="&#xec;" d="M40 1444L510 1444L510 0L40 0L40 1444M26 1796L397 1796L510 1480L26 1796Z"  horiz-adv-x="550" vert-adv-y="2048"  />

      
      <glyph glyph-name="unied" unicode="&#xed;" d="M508 1444L41 1444L41 0L508 0L508 1444M522 1796L154 1796L41 1480L522 1796Z"  horiz-adv-x="550" vert-adv-y="2048"  />

      
      <glyph glyph-name="uniee" unicode="&#xee;" d="M40 1444L510 1444L510 0L40 0L40 1444M502 1540L273 1823L45 1540L45 1481L274 1652L502 1478L502 1540Z"  horiz-adv-x="550" vert-adv-y="2048"  />

      
      <glyph glyph-name="unief" unicode="&#xef;" d="M40 1444L510 1444L510 0L40 0L40 1444M123 1764Q174 1764 206.50 1730.50Q239 1697 239 1647Q234 1586 200.50 1555Q167 1524 117 1524Q69 1524 36 1557Q3 1590 3 1640Q3 1696 36 1730Q69 1764 123 1764M435 1764Q486 1764 518.50 1730.50Q551 1697 551 1647Q546 1586 512.50 1555Q479 1524 429 1524Q381 1524 348 1557Q315 1590 315 1640Q315 1696 348 1730Q381 1764 435 1764Z"  horiz-adv-x="550" vert-adv-y="2048"  />

      
      <glyph glyph-name="unif0" unicode="&#xf0;" d="M212 0L212 542L-42 542L-42 794L212 794L212 1444L1064 1444Q1237 1444 1369 1398Q1501 1352 1592 1274Q1683 1196 1743.50 1063Q1804 930 1804 717Q1793 520 1738 382Q1683 244 1592 164Q1501 84 1369.50 40Q1238-4 1040 0L212 0M694 1086L694 796L974 796L974 542L694 542L694 360L969 360Q1062 360 1119 399.50Q1176 439 1212 500.50Q1248 562 1258 722Q1255 868 1217.50 937.50Q1180 1007 1121 1046.50Q1062 1086 967 1086L694 1086Z"  horiz-adv-x="1804" vert-adv-y="2048"  />

      
      <glyph glyph-name="unif1" unicode="&#xf1;" d="M60 0L60 1444L530 1444L960 904L960 1444L1430 1444L1430 0L960 0L530 540L530 0L60 0M1036 1676Q888 1536 713 1727Q538 1918 391 1648L451 1601Q536 1768 704 1586Q872 1404 1112 1636L1036 1676Z"  horiz-adv-x="1430" vert-adv-y="2048"  />

      
      <glyph glyph-name="unif2" unicode="&#xf2;" d="M1668 714Q1668 477 1569 310Q1470 143 1282.50 59Q1095-25 835-25Q575-25 388.50 59.50Q202 144 106 309.50Q10 475 10 714Q10 895 65 1032.50Q120 1170 226 1264Q332 1358 486 1406.50Q640 1455 835 1455Q1094 1455 1282 1369.50Q1470 1284 1569 1117.50Q1668 951 1668 714M203 1796L665 1796L841 1478L203 1796M523 710Q523 571 585.50 468Q648 365 832 365Q974 365 1044.50 419Q1115 473 1132.50 542.50Q1150 612 1156 710Q1150 849 1089 952.50Q1028 1056 832 1056Q523 1056 523 710Z"  horiz-adv-x="1677" vert-adv-y="2048"  />

      
      <glyph glyph-name="unif3" unicode="&#xf3;" d="M1668 714Q1668 477 1569 310Q1470 143 1282.50 59Q1095-25 835-25Q575-25 388.50 59.50Q202 144 106 309.50Q10 475 10 714Q10 895 65 1032.50Q120 1170 226 1264Q332 1358 486 1406.50Q640 1455 835 1455Q1094 1455 1282 1369.50Q1470 1284 1569 1117.50Q1668 951 1668 714M1311 1796L849 1796L673 1478L1311 1796M523 710Q523 571 585.50 468Q648 365 832 365Q974 365 1044.50 419Q1115 473 1132.50 542.50Q1150 612 1156 710Q1150 849 1089 952.50Q1028 1056 832 1056Q523 1056 523 710Z"  horiz-adv-x="1677" vert-adv-y="2048"  />

      
      <glyph glyph-name="unif4" unicode="&#xf4;" d="M1668 714Q1668 477 1569 310Q1470 143 1282.50 59Q1095-25 835-25Q575-25 388.50 59.50Q202 144 106 309.50Q10 475 10 714Q10 895 65 1032.50Q120 1170 226 1264Q332 1358 486 1406.50Q640 1455 835 1455Q1094 1455 1282 1369.50Q1470 1284 1569 1117.50Q1668 951 1668 714M1114 1538L824 1838L537 1538L537 1476L827 1657L1114 1472L1114 1538M523 710Q523 571 585.50 468Q648 365 832 365Q974 365 1044.50 419Q1115 473 1132.50 542.50Q1150 612 1156 710Q1150 849 1089 952.50Q1028 1056 832 1056Q523 1056 523 710Z"  horiz-adv-x="1677" vert-adv-y="2048"  />

      
      <glyph glyph-name="unif5" unicode="&#xf5;" d="M1668 714Q1668 477 1569 310Q1470 143 1282.50 59Q1095-25 835-25Q575-25 388.50 59.50Q202 144 106 309.50Q10 475 10 714Q10 895 65 1032.50Q120 1170 226 1264Q332 1358 486 1406.50Q640 1455 835 1455Q1094 1455 1282 1369.50Q1470 1284 1569 1117.50Q1668 951 1668 714M1124 1680Q976 1540 801 1731Q626 1922 479 1652L539 1605Q624 1772 792 1590Q960 1408 1200 1640L1124 1680M523 710Q523 571 585.50 468Q648 365 832 365Q974 365 1044.50 419Q1115 473 1132.50 542.50Q1150 612 1156 710Q1150 849 1089 952.50Q1028 1056 832 1056Q523 1056 523 710Z"  horiz-adv-x="1677" vert-adv-y="2048"  />

      
      <glyph glyph-name="unif6" unicode="&#xf6;" d="M1668 714Q1668 477 1569 310Q1470 143 1282.50 59Q1095-25 835-25Q575-25 388.50 59.50Q202 144 106 309.50Q10 475 10 714Q10 895 65 1032.50Q120 1170 226 1264Q332 1358 486 1406.50Q640 1455 835 1455Q1094 1455 1282 1369.50Q1470 1284 1569 1117.50Q1668 951 1668 714M1123 1764Q1174 1764 1206.50 1730.50Q1239 1697 1239 1647Q1234 1586 1200.50 1555Q1167 1524 1117 1524Q1069 1524 1036 1557Q1003 1590 1003 1640Q1003 1696 1036 1730Q1069 1764 1123 1764M563 1764Q614 1764 646.50 1730.50Q679 1697 679 1647Q674 1586 640.50 1555Q607 1524 557 1524Q509 1524 476 1557Q443 1590 443 1640Q443 1696 476 1730Q509 1764 563 1764M523 710Q523 571 585.50 468Q648 365 832 365Q974 365 1044.50 419Q1115 473 1132.50 542.50Q1150 612 1156 710Q1150 849 1089 952.50Q1028 1056 832 1056Q523 1056 523 710Z"  horiz-adv-x="1677" vert-adv-y="2048"  />

      
      <glyph glyph-name="unif8" unicode="&#xf8;" d="M640 420Q644 372 828 368Q976 368 1066 444Q1156 520 1160 689L1160 812L640 420M1446 1274L1556 1362L1668 1212L1580 1134Q1668 951 1668 714Q1668 477 1569 310Q1470 143 1282.50 59Q1095-25 835-25Q575-25 280 124L112-8L2 140L136 248Q10 475 10 714Q10 895 65 1032.50Q120 1170 226 1264Q332 1358 486 1406.50Q640 1455 835 1455Q1094 1455 1245 1383.50Q1396 1312 1446 1274M1056 972Q1056 1048 836 1056Q516 1056 530 707Q524 640 536 572L1056 972Z"  horiz-adv-x="1677" vert-adv-y="2048"  />

      
      <glyph glyph-name="unif9" unicode="&#xf9;" d="M480 1444L480 590Q474 444 536 387Q598 330 730 326Q836 328 907 388Q978 448 974 590L974 1444L1444 1444L1444 597Q1441 417 1384.50 309.50Q1328 202 1241.50 130Q1155 58 1024.50 18Q894-22 734-26Q601-23 463.50 10.50Q326 44 223.50 116Q121 188 65.50 301Q10 414 10 596L10 1444L480 1444M203 1796L665 1796L841 1478L203 1796Z"  horiz-adv-x="1454" vert-adv-y="2048"  />

      
      <glyph glyph-name="unifa" unicode="&#xfa;" d="M480 1444L480 590Q474 444 536 387Q598 330 730 326Q836 328 907 388Q978 448 974 590L974 1444L1444 1444L1444 597Q1441 417 1384.50 309.50Q1328 202 1241.50 130Q1155 58 1024.50 18Q894-22 734-26Q601-23 463.50 10.50Q326 44 223.50 116Q121 188 65.50 301Q10 414 10 596L10 1444L480 1444M1311 1796L849 1796L673 1478L1311 1796Z"  horiz-adv-x="1454" vert-adv-y="2048"  />

      
      <glyph glyph-name="unifb" unicode="&#xfb;" d="M480 1444L480 590Q474 444 536 387Q598 330 730 326Q836 328 907 388Q978 448 974 590L974 1444L1444 1444L1444 597Q1441 417 1384.50 309.50Q1328 202 1241.50 130Q1155 58 1024.50 18Q894-22 734-26Q601-23 463.50 10.50Q326 44 223.50 116Q121 188 65.50 301Q10 414 10 596L10 1444L480 1444M1030 1538L740 1838L453 1538L453 1476L743 1657L1030 1472L1030 1538Z"  horiz-adv-x="1454" vert-adv-y="2048"  />

      
      <glyph glyph-name="unifc" unicode="&#xfc;" d="M480 1444L480 590Q474 444 536 387Q598 330 730 326Q836 328 907 388Q978 448 974 590L974 1444L1444 1444L1444 597Q1441 417 1384.50 309.50Q1328 202 1241.50 130Q1155 58 1024.50 18Q894-22 734-26Q601-23 463.50 10.50Q326 44 223.50 116Q121 188 65.50 301Q10 414 10 596L10 1444L480 1444M947 1768Q998 1768 1030.50 1734.50Q1063 1701 1063 1651Q1058 1590 1024.50 1559Q991 1528 941 1528Q893 1528 860 1561Q827 1594 827 1644Q827 1700 860 1734Q893 1768 947 1768M499 1764Q550 1764 582.50 1730.50Q615 1697 615 1647Q610 1586 576.50 1555Q543 1524 493 1524Q445 1524 412 1557Q379 1590 379 1640Q379 1696 412 1730Q445 1764 499 1764Z"  horiz-adv-x="1454" vert-adv-y="2048"  />

      
      <glyph glyph-name="unifd" unicode="&#xfd;" d="M1602 1444L972 530L972 0L500 0L500 530L-130 1444L440 1444L734 998L1032 1444L1602 1444M1259 1796L797 1796L621 1478L1259 1796Z"  horiz-adv-x="1472" vert-adv-y="2048"  />

      
      <glyph glyph-name="unife" unicode="&#xfe;" d="M510 272L510 0L40 0L40 1444L510 1444L510 1191Q910 1192 1017.50 1163Q1125 1134 1199 1084Q1273 1034 1322 949.50Q1371 865 1371 729Q1363 603 1318 515Q1273 427 1199 376Q1125 325 1018 297Q911 269 750 271L510 272M510 908L510 530L732 529Q807 529 853.50 549.50Q900 570 929.50 602.50Q959 635 967 719Q965 795 934.50 831.50Q904 868 855.50 888Q807 908 730 908L510 908Z"  horiz-adv-x="1378" vert-adv-y="2048"  />

      
      <glyph glyph-name="uniff" unicode="&#xff;" d="M1602 1444L972 530L972 0L500 0L500 530L-130 1444L440 1444L734 998L1032 1444L1602 1444M499 1764Q550 1764 582.50 1730.50Q615 1697 615 1647Q610 1586 576.50 1555Q543 1524 493 1524Q445 1524 412 1557Q379 1590 379 1640Q379 1696 412 1730Q445 1764 499 1764M947 1768Q998 1768 1030.50 1734.50Q1063 1701 1063 1651Q1058 1590 1024.50 1559Q991 1528 941 1528Q893 1528 860 1561Q827 1594 827 1644Q827 1700 860 1734Q893 1768 947 1768Z"  horiz-adv-x="1472" vert-adv-y="2048"  />

      
      <glyph glyph-name="uni0152" unicode="&#x0152;" d="M756 0Q580-8 396 86Q212 180 116 330Q20 480 24 716Q16 896 76 1026Q136 1156 240 1250Q344 1344 492 1392Q640 1440 832 1444L2000 1444L2000 1014L1232 1014L1232 848L1728 848L1728 596L1232 596L1232 430L2122 430L2122 0L756 0M523 710Q523 571 585.50 468Q648 365 832 365L832 1056Q523 1056 523 710Z"  horiz-adv-x="2062" vert-adv-y="2048"  />

      
      <glyph glyph-name="uni0153" unicode="&#x0153;" d="M756 0Q580-8 396 86Q212 180 116 330Q20 480 24 716Q16 896 76 1026Q136 1156 240 1250Q344 1344 492 1392Q640 1440 832 1444L2000 1444L2000 1014L1232 1014L1232 848L1728 848L1728 596L1232 596L1232 430L2122 430L2122 0L756 0M523 710Q523 571 585.50 468Q648 365 832 365L832 1056Q523 1056 523 710Z"  horiz-adv-x="2062" vert-adv-y="2048"  />

      
      <glyph glyph-name="uni0160" unicode="&#x0160;" d="M1196 1444L408 1444Q132 1444 80 1176Q28 908 376 588Q587 422 304 430L0 430L0 0L768 0Q1080 52 1086 320Q1092 588 768 872Q587 1022 844 1014L1196 1014L1196 1444M922 1824L632 1458L345 1824L345 1900L635 1679L922 1904L922 1824Z"  horiz-adv-x="1135" vert-adv-y="2048"  />

      
      <glyph glyph-name="uni0161" unicode="&#x0161;" d="M1196 1444L408 1444Q132 1444 80 1176Q28 908 376 588Q587 422 304 430L0 430L0 0L768 0Q1080 52 1086 320Q1092 588 768 872Q587 1022 844 1014L1196 1014L1196 1444M922 1824L632 1458L345 1824L345 1900L635 1679L922 1904L922 1824Z"  horiz-adv-x="1135" vert-adv-y="2048"  />

      
      <glyph glyph-name="uni0178" unicode="&#x0178;" d="M1602 1444L972 530L972 0L500 0L500 530L-130 1444L440 1444L734 998L1032 1444L1602 1444M499 1764Q550 1764 582.50 1730.50Q615 1697 615 1647Q610 1586 576.50 1555Q543 1524 493 1524Q445 1524 412 1557Q379 1590 379 1640Q379 1696 412 1730Q445 1764 499 1764M947 1768Q998 1768 1030.50 1734.50Q1063 1701 1063 1651Q1058 1590 1024.50 1559Q991 1528 941 1528Q893 1528 860 1561Q827 1594 827 1644Q827 1700 860 1734Q893 1768 947 1768Z"  horiz-adv-x="1472" vert-adv-y="2048"  />

      
      <glyph glyph-name="uni017D" unicode="&#x017D;" d="M40 1444L1360 1444L1360 1014L661 430L1360 430L1360 0L40 0L40 430L739 1014L40 1014L40 1444M922 1824L632 1458L345 1824L345 1900L635 1679L922 1904L922 1824Z"  horiz-adv-x="1400" vert-adv-y="2048"  />

      
      <glyph glyph-name="uni017E" unicode="&#x017E;" d="M40 1444L1360 1444L1360 1014L661 430L1360 430L1360 0L40 0L40 430L739 1014L40 1014L40 1444M922 1824L632 1458L345 1824L345 1900L635 1679L922 1904L922 1824Z"  horiz-adv-x="1400" vert-adv-y="2048"  />

      
      <glyph glyph-name="uni0400" unicode="&#x0400;" d="M60 0L60 1014L-240 1014L-240 1444L1298 1444L1298 1014L530 1014L530 848L1026 848L1026 596L530 596L530 430L1420 430L1420 0L60 0M1238 1444L730 0L-37 0L-408 1014L-707 1014L-707 1444L27 1444L359 335L687 1444L1238 1444Z"  horiz-adv-x="1360" vert-adv-y="2048"  />

      
      <glyph glyph-name="uni0401" unicode="&#x0401;" d="M60 0L60 1444L1298 1444L1298 1014L530 1014L530 848L1026 848L1026 596L530 596L530 430L1420 430L1420 0L60 0M563 1764Q614 1764 646.50 1730.50Q679 1697 679 1647Q674 1586 640.50 1555Q607 1524 557 1524Q509 1524 476 1557Q443 1590 443 1640Q443 1696 476 1730Q509 1764 563 1764M941 1764Q992 1764 1024.50 1730.50Q1057 1697 1057 1647Q1052 1586 1018.50 1555Q985 1524 935 1524Q887 1524 854 1557Q821 1590 821 1640Q821 1696 854 1730Q887 1764 941 1764Z"  horiz-adv-x="1360" vert-adv-y="2048"  />

      
      <glyph glyph-name="uni0404" unicode="&#x0404;" d="M799 858L799 618L486 618Q574 498 635 463Q696 428 820 412Q948 420 1004 446Q1060 472 1132 532L1416 216Q1292 100 1170 56Q1048 12 816 0Q592 12 477 65.50Q362 119 249.50 207.50Q137 296 73.50 429.50Q10 563 10 739Q10 913 73.50 1046.50Q137 1180 249.50 1268.50Q362 1357 477 1410.50Q592 1464 816 1476Q1048 1464 1170 1420Q1292 1376 1416 1260L1132 944Q1060 1004 1004 1030Q948 1056 820 1064Q696 1048 635 1013Q574 978 486 858L799 858Z"  horiz-adv-x="1440" vert-adv-y="2048"  />

      
      <glyph glyph-name="uni0405" unicode="&#x0405;" d="M1298 1444L408 1444Q132 1444 80 1176Q28 908 376 588Q587 422 304 430L-492 430L-492 0L768 0Q1080 52 1086 320Q1092 588 768 872Q587 1022 844 1014L1298 1014L1298 1444Z"  horiz-adv-x="1135" vert-adv-y="2048"  />

      
      <glyph glyph-name="uni0406" unicode="&#x0406;" d="M532 0L62 0L62 1014L-338 1014L-338 1444L532 1444L532 0Z"  horiz-adv-x="577" vert-adv-y="2048"  />

      
      <glyph glyph-name="uni0407" unicode="&#x0407;" d="M532 0L62 0L62 1014L-338 1014L-338 1444L532 1444L532 0M117 1764Q168 1764 200.50 1730.50Q233 1697 233 1647Q228 1586 194.50 1555Q161 1524 111 1524Q63 1524 30 1557Q-3 1590-3 1640Q-3 1696 30 1730Q63 1764 117 1764M429 1764Q480 1764 512.50 1730.50Q545 1697 545 1647Q540 1586 506.50 1555Q473 1524 423 1524Q375 1524 342 1557Q309 1590 309 1640Q309 1696 342 1730Q375 1764 429 1764Z"  horiz-adv-x="577" vert-adv-y="2048"  />

      
      <glyph glyph-name="uni0408" unicode="&#x0408;" d="M1046 1444L1046 1014L796 1014L796-8Q790-174 760-242Q730-310 653-370Q576-430 460-461Q344-492 250-502Q156-512 0-512L0-82Q88-84 141-76Q194-68 231-50Q268-32 291 1Q314 34 326 124L326 1444L1046 1444Z"  horiz-adv-x="877" vert-adv-y="2048"  />

      
      <glyph glyph-name="uni040D" unicode="&#x040D;" d="M962 0L962 540L532 0L62 0L62 1014L-338 1014L-338 1444L532 1444L532 904L962 1444L1432 1444L1432 0L962 0M1195 1444L687 0L-80 0L-451 1014L-750 1014L-750 1444L-16 1444L316 335L644 1444L1195 1444Z"  horiz-adv-x="1455" vert-adv-y="2048"  />

      
      <glyph glyph-name="uni0410" unicode="&#x0410;" d="M755 1124L548 552L946 552L755 1124M-100 1014L-100 1444L1112 1444L1595 0L1049 0L958 260L529 260L438 0L-80 0L253 1014L-100 1014Z"  horiz-adv-x="1515" vert-adv-y="2048"  />

      
      <glyph glyph-name="uni0411" unicode="&#x0411;" d="M60 0L60 1014L-240 1014L-240 1444L1500 1444L1500 1014L558 1015L557 801L976 802Q1161 805 1233.50 791Q1306 777 1371 754Q1436 731 1508 676Q1580 621 1598.50 537Q1617 453 1617 399Q1617 228 1529.50 140Q1442 52 1304.50 25Q1167-2 971 0L60 0M558 559L558 292L879 292Q962 289 1024 328Q1086 367 1086 424Q1092 487 1035.50 523Q979 559 879 559L558 559Z"  horiz-adv-x="1628" vert-adv-y="2048"  />

      
      <glyph glyph-name="uni0412" unicode="&#x0412;" d="M60 0L60 1014L-240 1014L-240 1444L1045 1444Q1282 1442 1405.50 1362Q1529 1282 1555 1094Q1564 950 1494 868Q1424 786 1263 733L1263 729Q1342 719 1409 686.50Q1476 654 1521.50 609.50Q1567 565 1592 509Q1617 453 1617 399Q1617 228 1529.50 140Q1442 52 1304.50 25Q1167-2 971 0L60 0M558 559L558 292L879 292Q962 289 1024 328Q1086 367 1086 424Q1092 487 1035.50 523Q979 559 879 559L558 559M558 1094L558 875L908 875Q937 875 969 905.50Q1001 936 1003 987Q999 1046 964.50 1070Q930 1094 907 1094L558 1094Z"  horiz-adv-x="1628" vert-adv-y="2048"  />

      
      <glyph glyph-name="uni0413" unicode="&#x0413;" d="M60 0L60 1014L-240 1014L-240 1444L1298 1444L1298 1014L530 1014L530 0L60 0Z"  horiz-adv-x="1328" vert-adv-y="2048"  />

      
      <glyph glyph-name="uni0414" unicode="&#x0414;" d="M1776-317L1237-317L1237 0L580 0L580-317L41-317L41 383L152 383Q279 510 322 686Q348 795 348 975L348 1434L1624 1434L1624 383L1776 383L1776-317M1085 383L1085 1075L821 1075L821 891Q821 725 797 625Q766 496 680 383L1085 383Z"  horiz-adv-x="1817" vert-adv-y="2048"  />

      
      <glyph glyph-name="uni0415" unicode="&#x0415;" d="M60 0L60 1014L-240 1014L-240 1444L1298 1444L1298 1014L530 1014L530 848L1026 848L1026 596L530 596L530 430L1420 430L1420 0L60 0Z"  horiz-adv-x="1360" vert-adv-y="2048"  />

      
      <glyph glyph-name="uni0416" unicode="&#x0416;" d="M861 976L861 1444L862 1444L862 1445L1332 1445L1332 975L1661 1444L2131 1444L1593 722L1833 430L2605 430L2605 0L1695 0L1332 429L1332 1L1331 1L1331 0L861 0L861 430L498 1L-412 1L-412 431L360 431L600 723L62 1445L532 1445L861 976Z"  horiz-adv-x="2205" vert-adv-y="2048"  />

      
      <glyph glyph-name="uni0417" unicode="&#x0417;" d="M879 292Q962 289 1024 328Q1086 367 1086 424Q1092 487 1035.50 523Q979 559 879 559L558 559L558 875L908 875Q937 875 969 905.50Q1001 936 1003 987Q999 1046 964.50 1070Q930 1094 907 1094L-240 1094L-240 1444L1045 1444Q1282 1442 1405.50 1362Q1529 1282 1555 1094Q1564 950 1494 868Q1424 786 1263 733L1263 729Q1342 719 1409 686.50Q1476 654 1521.50 609.50Q1567 565 1592 509Q1617 453 1617 399Q1617 228 1529.50 140Q1442 52 1304.50 25Q1167-2 971 0L60 0L60 292L879 292Z"  horiz-adv-x="1628" vert-adv-y="2048"  />

      
      <glyph glyph-name="uni0418" unicode="&#x0418;" d="M962 0L962 540L532 0L62 0L62 1014L-338 1014L-338 1444L532 1444L532 904L962 1444L1432 1444L1432 0L962 0Z"  horiz-adv-x="1455" vert-adv-y="2048"  />

      
      <glyph glyph-name="uni0419" unicode="&#x0419;" d="M962 0L962 540L532 0L62 0L62 1014L-338 1014L-338 1444L532 1444L532 904L962 1444L1432 1444L1432 0L962 0M604 1449L604 1131L874 1444L613 1444L604 1449Z"  horiz-adv-x="1455" vert-adv-y="2048"  />

      
      <glyph glyph-name="uni041A" unicode="&#x041A;" d="M530 1444L530 974L860 1444L1330 1444L792 722L1032 430L1804 430L1804 0L894 0L530 430L530 0L60 0L60 1444L530 1444Z"  horiz-adv-x="1404" vert-adv-y="2048"  />

      
      <glyph glyph-name="uni041B" unicode="&#x041B;" d="M1610 1438L1610-1L1126-1L1126 1040L743 1040Q741 936 741 834Q735 587 719 425Q696 193 653 137Q582 43 449 1Q346-31 221-31Q145-31 116.50-28Q88-25 74-19L82 275Q129 281 154 293Q229 333 248 437Q276 595 292.50 837.50Q309 1080 311 1215Q313 1350 315 1438L1610 1438Z"  horiz-adv-x="1726" vert-adv-y="2048"  />

      
      <glyph glyph-name="uni041C" unicode="&#x041C;" d="M40 0L40 1014L-260 1014L-260 1444L510 1444L826 844L1140 1444L1610 1444L1610 0L1140 0L1140 600L838 0L812 0L510 600L510 0L40 0Z"  horiz-adv-x="1650" vert-adv-y="2048"  />

      
      <glyph glyph-name="uni041D" unicode="&#x041D;" d="M888 946L888 1444L1358 1444L1358 0L888 0L888 520L510 520L510 0L40 0L40 1014L-260 1014L-260 1444L510 1444L510 946L888 946Z"  horiz-adv-x="1398" vert-adv-y="2048"  />

      
      <glyph glyph-name="uni041E" unicode="&#x041E;" d="M1668 714Q1668 477 1569 310Q1470 143 1282.50 59Q1095-25 835-25Q575-25 388.50 59.50Q202 144 106 309.50Q10 475 10 714Q10 895 65 1032.50Q120 1170 226 1264Q332 1358 486 1406.50Q640 1455 835 1455Q1094 1455 1282 1369.50Q1470 1284 1569 1117.50Q1668 951 1668 714M523 710Q523 571 585.50 468Q648 365 832 365Q974 365 1044.50 419Q1115 473 1132.50 542.50Q1150 612 1156 710Q1150 849 1089 952.50Q1028 1056 832 1056Q523 1056 523 710Z"  horiz-adv-x="1677" vert-adv-y="2048"  />

      
      <glyph glyph-name="uni041F" unicode="&#x041F;" d="M1358 1444L1358 0L888 0L888 1015L510 1015L510 0L40 0L40 1014L-260 1014L-260 1444L1358 1444Z"  horiz-adv-x="1398" vert-adv-y="2048"  />

      
      <glyph glyph-name="uni0420" unicode="&#x0420;" d="M60 0L60 1014L-240 1014L-240 1444L1000 1444Q1174 1428 1288 1354Q1402 1280 1450 1148Q1494 988 1486 908Q1478 828 1454 758Q1430 688 1322 596Q1214 504 1034 477L582 477L582 0L60 0M582 1084L582 818L946 818Q975 818 1009 839.50Q1043 861 1045 948Q1040 1031 1004.50 1057.50Q969 1084 945 1084L582 1084Z"  horiz-adv-x="1501" vert-adv-y="2048"  />

      
      <glyph glyph-name="uni0421" unicode="&#x0421;" d="M478 738Q486 618 530 558Q574 498 635 463Q696 428 820 412Q948 420 1004 446Q1060 472 1132 532L1416 216Q1292 100 1170 56Q1048 12 816 0Q592 12 477 65.50Q362 119 249.50 207.50Q137 296 73.50 429.50Q10 563 10 739Q10 913 73.50 1046.50Q137 1180 249.50 1268.50Q362 1357 477 1410.50Q592 1464 816 1476Q1048 1464 1170 1420Q1292 1376 1416 1260L1132 944Q1060 1004 1004 1030Q948 1056 820 1064Q696 1048 635 1013Q574 978 530 918Q486 858 478 738Z"  horiz-adv-x="1440" vert-adv-y="2048"  />

      
      <glyph glyph-name="uni0422" unicode="&#x0422;" d="M1228 1444L1228 1014L770 1014L770 0L300 0L300 1014L-158 1014L-158 1444L1228 1444Z"  horiz-adv-x="1070" vert-adv-y="2048"  />

      
      <glyph glyph-name="uni0423" unicode="&#x0423;" d="M-136 1444L-136 1014L164 1014L500 530L173 0L741 0L1602 1444L1032 1444L751 979L440 1444L-136 1444Z"  horiz-adv-x="1472" vert-adv-y="2048"  />

      
      <glyph glyph-name="uni0424" unicode="&#x0424;" d="M1898 1444Q2072 1428 2186 1354Q2300 1280 2348 1148Q2392 988 2384 908Q2376 828 2352 758Q2328 688 2220 596Q2112 504 1932 477L1481 477L1481 0L958 0L958 477L507 477Q327 504 219 596Q111 688 87 758Q63 828 55 908Q47 988 91 1148Q139 1280 253 1354Q367 1428 541 1444L1898 1444M958 818L958 1084L596 1084Q572 1084 536.50 1057.50Q501 1031 496 948Q498 861 532 839.50Q566 818 595 818L958 818M1481 1084L1481 818L1844 818Q1873 818 1907 839.50Q1941 861 1943 948Q1938 1031 1902.50 1057.50Q1867 1084 1843 1084L1481 1084Z"  horiz-adv-x="2399" vert-adv-y="2048"  />

      
      <glyph glyph-name="uni0425" unicode="&#x0425;" d="M1602 1444L1072 722L1602 0L1032 0L734 446L440 0L-130 0L400 722L-130 1444L440 1444L734 998L1032 1444L1602 1444Z"  horiz-adv-x="1472" vert-adv-y="2048"  />

      
      <glyph glyph-name="uni0426" unicode="&#x0426;" d="M44 0L48 1014L-197 1014L-197 1444L465 1444L467 410L835 411L835 1444L1267 1444L1267 410L1666 411L1666-396L1266-396L1261 0L44 0Z"  horiz-adv-x="1744" vert-adv-y="2048"  />

      
      <glyph glyph-name="uni0427" unicode="&#x0427;" d="M888 946L888 1444L1358 1444L1358 0L888 0L888 520L292 520Q140 516 89 578Q38 640 40 791L40 1014L-260 1014L-260 1444L510 1444L510 946L888 946Z"  horiz-adv-x="1398" vert-adv-y="2048"  />

      
      <glyph glyph-name="uni0428" unicode="&#x0428;" d="M50 0L48 1014L-197 1014L-197 1444L465 1444L467 410L835 411L835 1444L1267 1444L1267 410L1602 411L1602 1444L2067 1444L2069 0L50 0Z"  horiz-adv-x="2103" vert-adv-y="2048"  />

      
      <glyph glyph-name="uni0429" unicode="&#x0429;" d="M50 0L51 1014L-197 1014L-197 1444L465 1444L470 410L832 408L835 1444L1267 1444L1270 410L1602 408L1602 1444L2067 1444L2065 401L2454 406L2457-406L2062-401L2063 0L50 0Z"  horiz-adv-x="2527" vert-adv-y="2048"  />

      
      <glyph glyph-name="uni042A" unicode="&#x042A;" d="M945 360Q969 360 1004.50 386.50Q1040 413 1045 496Q1043 583 1009 604.50Q975 626 946 626L582 626L582 360L945 360M582 1444L582 967L1034 967Q1214 940 1322 848Q1430 756 1454 686Q1478 616 1486 536Q1494 456 1450 296Q1402 164 1288 90Q1174 16 1000 0L-240 0L-240 430L60 430L60 1014L-316 1014L-316 1444L582 1444Z"  horiz-adv-x="1850" vert-adv-y="2048"  />

      
      <glyph glyph-name="uni042B" unicode="&#x042B;" d="M582 1444L582 967L1034 967Q1214 940 1322 848Q1430 756 1454 686Q1478 616 1486 536Q1494 456 1450 296Q1402 164 1288 90Q1174 16 1000 0L-240 0L-240 430L60 430L60 1444L582 1444M945 360Q969 360 1004.50 386.50Q1040 413 1045 496Q1043 583 1009 604.50Q975 626 946 626L582 626L582 360L945 360M2224 0L1754 0L1754 1014L1354 1014L1354 1444L2224 1444L2224 0Z"  horiz-adv-x="2315" vert-adv-y="2048"  />

      
      <glyph glyph-name="uni042C" unicode="&#x042C;" d="M582 1444L582 967L1034 967Q1214 940 1322 848Q1430 756 1454 686Q1478 616 1486 536Q1494 456 1450 296Q1402 164 1288 90Q1174 16 1000 0L-240 0L-240 430L60 430L60 1444L582 1444M945 360Q969 360 1004.50 386.50Q1040 413 1045 496Q1043 583 1009 604.50Q975 626 946 626L582 626L582 360L945 360Z"  horiz-adv-x="1501" vert-adv-y="2048"  />

      
      <glyph glyph-name="uni042D" unicode="&#x042D;" d="M940 858Q852 978 791 1013Q730 1048 606 1064Q478 1056 422 1030Q366 1004 294 944L10 1260Q134 1376 256 1420Q378 1464 610 1476Q834 1464 949 1410.50Q1064 1357 1176.50 1268.50Q1289 1180 1352.50 1046.50Q1416 913 1416 739Q1416 563 1352.50 429.50Q1289 296 1176.50 207.50Q1064 119 949 65.50Q834 12 610 0Q378 12 256 56Q134 100 10 216L294 532Q366 472 422 446Q478 420 606 412Q730 428 791 463Q852 498 940 618L627 618L627 858L940 858Z"  horiz-adv-x="1440" vert-adv-y="2048"  />

      
      <glyph glyph-name="uni042E" unicode="&#x042E;" d="M1325 720Q1325 584 1387.50 483Q1450 382 1634 382Q1776 382 1846.50 435Q1917 488 1934.50 556Q1952 624 1958 720Q1952 856 1891 957Q1830 1058 1634 1058Q1325 1058 1325 720M830 533L532 529L532 0L62 0L62 1014L-338 1014L-338 1444L532 1444L532 916L831 915Q844 979 867 1036Q922 1170 1028 1262Q1134 1354 1288 1401.50Q1442 1449 1637 1449Q1896 1449 2084 1365.50Q2272 1282 2371 1119Q2470 956 2470 724Q2470 491 2371 327.50Q2272 164 2084.50 82Q1897 0 1637 0Q1377 0 1190.50 82.50Q1004 165 908 328Q854 419 830 533Z"  horiz-adv-x="2501" vert-adv-y="2048"  />

      
      <glyph glyph-name="uni042F" unicode="&#x042F;" d="M979 0L979 477L521 0L-389 0L-389 430L383 430L491 568Q323 608 233 678Q143 748 107 852Q71 956 111 1148Q163 1276 275 1352Q387 1428 561 1444L1501 1444L1501 0L979 0M616 1084Q592 1084 556.50 1057.50Q521 1031 516 948Q518 861 552 839.50Q586 818 615 818L979 818L979 1084L616 1084Z"  horiz-adv-x="1552" vert-adv-y="2048"  />

      
      <glyph glyph-name="uni0430" unicode="&#x0430;" d="M-80 0L395 1444L1112 1444L1595 0L1049 0L958 260L529 260L438 0L-80 0M755 1124L548 552L946 552L755 1124Z"  horiz-adv-x="1515" vert-adv-y="2048"  />

      
      <glyph glyph-name="uni0431" unicode="&#x0431;" d="M60 0L60 1444L1501 1444L1499 1094L563 1094L560 872L972 872Q1237 873 1345.50 820.50Q1454 768 1515.50 691.50Q1577 615 1597 534Q1617 453 1617 399Q1617 228 1529.50 140Q1442 52 1304.50 25Q1167-2 971 0L60 0M558 559L558 292L879 292Q962 289 1024 328Q1086 367 1086 424Q1092 487 1035.50 523Q979 559 879 559L558 559Z"  horiz-adv-x="1628" vert-adv-y="2048"  />

      
      <glyph glyph-name="uni0432" unicode="&#x0432;" d="M60 0L60 1444L1045 1444Q1282 1442 1405.50 1362Q1529 1282 1555 1094Q1564 950 1494 868Q1424 786 1263 733L1263 729Q1342 719 1409 686.50Q1476 654 1521.50 609.50Q1567 565 1592 509Q1617 453 1617 399Q1617 228 1529.50 140Q1442 52 1304.50 25Q1167-2 971 0L60 0M558 559L558 292L879 292Q962 289 1024 328Q1086 367 1086 424Q1092 487 1035.50 523Q979 559 879 559L558 559M558 1094L558 875L908 875Q937 875 969 905.50Q1001 936 1003 987Q999 1046 964.50 1070Q930 1094 907 1094L558 1094Z"  horiz-adv-x="1628" vert-adv-y="2048"  />

      
      <glyph glyph-name="uni0433" unicode="&#x0433;" d="M60 0L60 1444L1298 1444L1298 1014L530 1014L530 0L60 0Z"  horiz-adv-x="1328" vert-adv-y="2048"  />

      
      <glyph glyph-name="uni0434" unicode="&#x0434;" d="M1776-317L1237-317L1237 0L580 0L580-317L41-317L41 383L152 383Q279 510 322 686Q348 795 348 975L348 1434L1624 1434L1624 383L1776 383L1776-317M1085 383L1085 1075L821 1075L821 891Q821 725 797 625Q766 496 680 383L1085 383Z"  horiz-adv-x="1817" vert-adv-y="2048"  />

      
      <glyph glyph-name="uni0435" unicode="&#x0435;" d="M60 0L60 1444L1298 1444L1298 1014L530 1014L530 848L1026 848L1026 596L530 596L530 430L1420 430L1420 0L60 0Z"  horiz-adv-x="1360" vert-adv-y="2048"  />

      
      <glyph glyph-name="uni0436" unicode="&#x0436;" d="M861 1444L1331 1444L1331 974L1661 1444L2131 1444L1593 722L1833 430L2265 430L2265 0L1695 0L1331 430L1331-1L861-1L861 429L497-1L-73-1L-73 429L359 429L599 721L61 1443L531 1443L861 973L861 1444Z"  horiz-adv-x="2205" vert-adv-y="2048"  />

      
      <glyph glyph-name="uni0437" unicode="&#x0437;" d="M879 292Q962 289 1024 328Q1086 367 1086 424Q1092 487 1035.50 523Q979 559 879 559L558 559L558 875L908 875Q937 875 969 905.50Q1001 936 1003 987Q999 1046 964.50 1070Q930 1094 907 1094L35 1094L35 1444L1045 1444Q1282 1442 1405.50 1362Q1529 1282 1555 1094Q1564 950 1494 868Q1424 786 1263 733L1263 729Q1342 719 1409 686.50Q1476 654 1521.50 609.50Q1567 565 1592 509Q1617 453 1617 399Q1617 228 1529.50 140Q1442 52 1304.50 25Q1167-2 971 0L60 0L60 292L879 292Z"  horiz-adv-x="1628" vert-adv-y="2048"  />

      
      <glyph glyph-name="uni0438" unicode="&#x0438;" d="M43 1438L555 1438L555 863L981 1438L1493 1438L1493 0L981 0L981 575L555 0L43 0L43 1438Z"  horiz-adv-x="1536" vert-adv-y="2048"  />

      
      <glyph glyph-name="uni0439" unicode="&#x0439;" d="M43 1438L555 1438L555 863L981 1438L1493 1438L1493 0L981 0L981 575L555 0L43 0L43 1438M630 1438L630 1136L874 1438L630 1438Z"  horiz-adv-x="1536" vert-adv-y="2048"  />

      
      <glyph glyph-name="uni043A" unicode="&#x043A;" d="M530 1444L530 974L860 1444L1330 1444L792 722L1032 430L1464 430L1464 0L894 0L530 430L530 0L60 0L60 1444L530 1444Z"  horiz-adv-x="1404" vert-adv-y="2048"  />

      
      <glyph glyph-name="uni043B" unicode="&#x043B;" d="M1610 1438L1610-1L1126-1L1126 1040L743 1040Q741 936 741 834Q735 587 719 425Q696 193 653 137Q582 43 449 1Q346-31 221-31Q145-31 116.50-28Q88-25 74-19L82 275Q129 281 154 293Q229 333 248 437Q276 595 292.50 837.50Q309 1080 311 1215Q313 1350 315 1438L1610 1438Z"  horiz-adv-x="1726" vert-adv-y="2048"  />

      
      <glyph glyph-name="uni043C" unicode="&#x043C;" d="M40 0L40 1444L510 1444L826 844L1140 1444L1610 1444L1610 0L1140 0L1140 600L838 0L812 0L510 600L510 0L40 0Z"  horiz-adv-x="1650" vert-adv-y="2048"  />

      
      <glyph glyph-name="uni043D" unicode="&#x043D;" d="M888 946L888 1444L1358 1444L1358 0L888 0L888 520L510 520L510 0L40 0L40 1444L510 1444L510 946L888 946Z"  horiz-adv-x="1398" vert-adv-y="2048"  />

      
      <glyph glyph-name="uni043E" unicode="&#x043E;" d="M1668 714Q1668 477 1569 310Q1470 143 1282.50 59Q1095-25 835-25Q575-25 388.50 59.50Q202 144 106 309.50Q10 475 10 714Q10 895 65 1032.50Q120 1170 226 1264Q332 1358 486 1406.50Q640 1455 835 1455Q1094 1455 1282 1369.50Q1470 1284 1569 1117.50Q1668 951 1668 714M523 710Q523 571 585.50 468Q648 365 832 365Q974 365 1044.50 419Q1115 473 1132.50 542.50Q1150 612 1156 710Q1150 849 1089 952.50Q1028 1056 832 1056Q523 1056 523 710Z"  horiz-adv-x="1677" vert-adv-y="2048"  />

      
      <glyph glyph-name="uni043F" unicode="&#x043F;" d="M1358 1444L1358 0L888 0L888 975L510 975L510 0L40 0L40 1444L1358 1444Z"  horiz-adv-x="1398" vert-adv-y="2048"  />

      
      <glyph glyph-name="uni0440" unicode="&#x0440;" d="M60 0L60 1444L1000 1444Q1174 1428 1288 1354Q1402 1280 1450 1148Q1494 988 1486 908Q1478 828 1454 758Q1430 688 1322 596Q1214 504 1034 477L582 477L582 0L60 0M582 1084L582 818L946 818Q975 818 1009 839.50Q1043 861 1045 948Q1040 1031 1004.50 1057.50Q969 1084 945 1084L582 1084Z"  horiz-adv-x="1501" vert-adv-y="2048"  />

      
      <glyph glyph-name="uni0441" unicode="&#x0441;" d="M1032 430L1484 430L1484 0L844 0Q609 0 419 83.50Q229 167 119.50 334Q10 501 10 743Q10 913 75.50 1046.50Q141 1180 257 1268.50Q373 1357 523.50 1400.50Q674 1444 844 1444L1240 1444L1484 1444L1484 1014L1032 1014Q880 1014 807 1005Q734 996 677 975Q620 954 576 902Q532 850 525 718Q530 590 576 535Q622 480 688 462Q754 444 824 437Q894 430 1032 430Z"  horiz-adv-x="1484" vert-adv-y="2048"  />

      
      <glyph glyph-name="uni0442" unicode="&#x0442;" d="M1376 1444L1376 1014L918 1014L918 0L448 0L448 1014L-10 1014L-10 1444L1376 1444Z"  horiz-adv-x="1366" vert-adv-y="2048"  />

      
      <glyph glyph-name="uni0443" unicode="&#x0443;" d="M1602 1444L767 0L199 0L500 530L-130 1444L440 1444L753 966L1032 1444L1602 1444Z"  horiz-adv-x="1472" vert-adv-y="2048"  />

      
      <glyph glyph-name="uni0444" unicode="&#x0444;" d="M1898 1444Q2072 1428 2186 1354Q2300 1280 2348 1148Q2392 988 2384 908Q2376 828 2352 758Q2328 688 2220 596Q2112 504 1932 477L1481 477L1481 0L958 0L958 477L507 477Q327 504 219 596Q111 688 87 758Q63 828 55 908Q47 988 91 1148Q139 1280 253 1354Q367 1428 541 1444L1898 1444M958 818L958 1084L596 1084Q572 1084 536.50 1057.50Q501 1031 496 948Q498 861 532 839.50Q566 818 595 818L958 818M1481 1084L1481 818L1844 818Q1873 818 1907 839.50Q1941 861 1943 948Q1938 1031 1902.50 1057.50Q1867 1084 1843 1084L1481 1084Z"  horiz-adv-x="2399" vert-adv-y="2048"  />

      
      <glyph glyph-name="uni0445" unicode="&#x0445;" d="M1602 1444L1072 722L1602 0L1032 0L734 446L440 0L-130 0L400 722L-130 1444L440 1444L734 998L1032 1444L1602 1444Z"  horiz-adv-x="1472" vert-adv-y="2048"  />

      
      <glyph glyph-name="uni0446" unicode="&#x0446;" d="M40 0L40 1444L510 1444L510 469L888 469L888 1444L1358 1444L1358 469L1806 470L1806-401L1358-400L1358 0L40 0Z"  horiz-adv-x="1850" vert-adv-y="2048"  />

      
      </font>
</defs>
</svg>
